<?xml version="1.0" encoding="utf-8"?>
<!-- Generator: Adobe Illustrator 25.2.3, SVG Export Plug-In . SVG Version: 6.00 Build 0)  -->
<svg version="1.1" id="Layer_1" xmlns="http://www.w3.org/2000/svg" xmlns:xlink="http://www.w3.org/1999/xlink" x="0px" y="0px"
	 viewBox="0 0 494.9 154.9" style="enable-background:new 0 0 494.9 154.9;" xml:space="preserve">
<style type="text/css">
	.st0{fill-rule:evenodd;clip-rule:evenodd;fill:#FFFFFF;}
</style>
<symbol  id="New_Symbol_1" viewBox="-247.4 -77.4 494.9 154.9">
	<g>
		<g>
			<path class="st0" d="M-137.8,13.9c-0.8,1.5-1.1,2.5-2.4,4.7c-2.3,3.4-5.7,5.6-9.5,3.5c-3.8-1.7-7.1-9.8-4.2-13
				c0.2-0.4,0.5-0.7,0.8-1c3.5-3.5,11.3-1.1,12.4-1.4c0.2-0.5,0.6-3.6,0.4-4c-3.6-5.2-38-20.5-44.6-22.4c-0.8-0.2-3.1-1-2.7-1.7
				c2.2-0.5,13.5,2.1,16.8,2.5c8,0.4,28.3,12.4,31.4,19.4c2,2.8,2,4.9,2.6,7.2c2,0.5,3.6,1.4,4.7,2c-0.7-2.2-1.4-3.2-1.8-4.5
				c-0.7-3-0.6-5.7,0.7-8.7c8.7-19.3,51.8-3.2,64.3,4.2c5.3,2.3,5.7,3.2,7.7,8.7c2.6,8.4-4.6,19.6-12.4,19.2
				c-4.9-0.2-7.9-5.5-9.2-10c-2.2-10.4,17.7-3.5,19-9.1c0.8-3.6-70-33.6-67.6,0.7c0.5,0.4,0.4,0.3,0.8,0.7c3.7,3.4,4.9,8.9,5,13.7
				c0,8.3-3.6,20-3.7,27.7c0.8-0.2,2.6-3.3,3.3-4.2c1,0.3,0.5,1.5,0.4,2.2c-1.6,5.4-4.1,10.3-5.6,15.3c-0.1,0.4-0.1,0.9-0.5,1.1
				c-0.6-0.2-3.1-4.8-3.6-5.5c-1.4-2.7,0.4-0.2,1.1-6.8c0.7-12.1,4.1-23.7,4.9-35.7c0.1-1.7-0.4-1.6-1.8-2.5
				C-132.6,15.4-136,13.8-137.8,13.9 M-78.4,20.1c0.4,1.2,2.7,2.2,4.6,1.7c1.5-0.4,3.5-1.7,4.2-2.5c-1.3-0.1-3.3-0.2-4.9-0.1
				C-76.6,19.2-77.4,19.8-78.4,20.1z M-150.7,14.7c0.2,0.5,0.8,1.2,1.4,1.4c2.3,0.5,3.7-1.3,4.6-2.3c0.2-0.3,0.4-0.4,0.5-0.8
				C-145.4,12.9-150.1,13.1-150.7,14.7z M-35,18.3c-0.1,0-0.2,0.1-0.3,0.1c-1.9,1.1-4.2,4.4-4.4,6.7c-0.2,1.3,0.1,2.1-1.4,1.2
				c-3.8-2.3-7.8-3.6-11.7-6c-0.9-0.6-1.7-5.3-1.8-6.4c-0.1-0.8-0.2-0.5,0.1-1.2c1.1-1.9,3.8-9,2.5-10.3c-8.8-8.9-37.2-16-49.3-19.6
				c-1-0.3-2.3-0.3-1.9-1.7c0.6-0.3,24.7,2.1,26.3,2.6c6.7,1.8,17.3,7,22.8,11.6c5,4.3,5.8,12,4.3,18.2c-0.7,2.7-0.8,2.1,1.4,3.3
				c1,0.5,5.1,2.8,6,2.8c1.3-1.7,0.9-3.8,4-7.3c-0.2-1.3-1.1-2.2-1.3-3.7c-6.4-30.5,27.8-25.1,37.4-8.4c0.4,0.6,0.7,1.1,1.2,1.5
				c5.1-2.2,6.5-3.8,12.6-4.8c3-0.5,3.9,1.5,4.8,3.5c1.1,2.4,1.7,3.9,0.4,6.3c-1.7,3.3-5.6,9-9.6,7.1C1.5,11.1-1,3-7.4-1.1
				c-7.4-4.4-14.4-6.9-23-4.1c-5.7,1.9-9,8.9-7.4,14.8c0.1,0.6,0.5,1,0.5,1.6c8.8-4.9,32-3,35.7,9c1.2,3.5,2.4,5.7,0.6,9.4
				c-3.8,7.4-13.2,10.9-20,6.6C-24.9,34.1-35,21.6-35,18.3z M-3.7,20.7c-8.2-5.2-18.6-7.8-28-4.4c-1.4,0.5-2,0.7-2,1
				c0,0.6,5.1,7.3,5.8,8c2.5,2.9,6.2,6.5,10.8,6.4C-11.2,31.5-4.5,27.2-3.7,20.7z M3.8,6.5C4.1,6.9,4.4,7,4.9,7.3
				c3.4,1.8,6.1-2.6,6.7-3.6C9.7,3.8,5.7,5.7,3.8,6.5z M-111.9-2.9c-0.1-0.5,0-0.6,0.2-0.9c0.8,0.1,1.3,1.7,1.5,2.4
				c1.4,4.6,1.8,4.3,1.8,10c0.9,16.3-4.5,30.9-4.5,44.1c0,0,3.4-3.7,3.5-3.8c1.1,0.4,0.5,1.6,0.1,2.3c-1.1,2.9-6,16.5-6.7,16.8
				c-0.6-0.9-1.2-1.9-1.8-2.8c-3.2-5.4-1.7-3.6-1.3-6.6c0.7-3.8,1.7-8.7,2.1-12.1c1.6-12.3,4.4-24.9,4.9-37.2
				C-111.5,6.2-111.2,0.1-111.9-2.9z M-40.2,38c3.8,1.6,22.1,9.3,34.9,14.2c7.5,2.9,12.8,4.2,13,4.3c0.4,0.2,1.5,2.7,1.3,3.2
				c-3.1,0.7-44-15.9-49.1-18.5C-40.9,40.9-41.6,37.5-40.2,38z M-175.2,35.5c-1.1-1.6-8.4-4.8-10.8-5.9c-1-0.5-3.3-1.3-3-2.6
				c0.3-0.1,7.3,1.9,8.5,2.1c4,1.2,6.5,2.8,8.5,4.9c0.3,0.3,3.6,6.5,3.7,7c-1.9,1.1-14.8,1.7-16.5-0.3c-0.6-0.7-2.3-4.3-2.6-5.3
				c-0.4-0.6-0.5-2,0.6-1.2C-184.1,36.3-178.6,35.9-175.2,35.5z M-36.6,61.6c1.5,1.4,6.8,1.6,12,1c-0.8-1.5-10.5-5.9-12.4-6.6
				c-0.6-0.2-1.8-0.5-1.3-1.3c0.5-0.9,10.4,2,11.9,2.8c1.7,1.3,8.1,8.3,7.5,10.7c-2.3,1.3-12.4,0.9-14.4-0.2
				C-34.1,67.5-36.9,62.7-36.6,61.6z M-243.6,63c-0.6-0.6-3.8-5.1-3.8-6c1.2-0.8,4.4-2.7,5.8-3.7c2.4-1.8,1.8-1.4,4.3,1.7
				c0.7,1,1.4,2,2.1,2.9c1.1-0.3,6.9-4.7,7.5-5c0.8,0.4,3.4,4.5,4.2,5.8c-1.1,0.8-7.1,5.7-8,4.8c-0.6-0.4-2.9-4.2-3.6-5.1
				c-0.6-0.5-1.1,0-1.4,0.3C-237.7,59.7-242.6,63.1-243.6,63z M-176.1,66.2c-15.2-3.5-25.9-8.5-39.9-15c-0.7-0.3-2.5-4.3-0.7-3.4
				c0.5,0.3,1,0.4,1.3,0.6c5.2,2.9,30.4,13.9,39.2,15C-175.6,64.4-174.5,66.6-176.1,66.2z M-84.5,55.7c-3-8-21.1-17.7-24.2-23.4
				c3.1,0.6,19.4,12.7,22.3,17c1.7,2.2,2.3,3.4,3.7,5.5c1.3-0.2,2.1-2.7,2.9,0c1,3.2-1.1,2.5-1.3,3.6c-0.1,0.5,1.7,4,0.5,6.3
				c-0.4,1-1.7,2.4-3.2,1.7c-1.6-0.6-3-2.9-3.7-4.5C-89.4,56.4-87.5,57.8-84.5,55.7z M-86,60.8c1.4,3.8,5.1,1.1,3.5-1.7
				C-83.4,59.2-85.8,60.4-86,60.8z M-59,60.1c0.5,0.4,0.4,0.8,0.8,1.1c3.6-1.8,5.5-10.8,5.7-11c1.4,0.3,2.2,12,4.5,12.6
				c1,0.2,2.8-1.7,3.7-2.3c0.6,0.4,0.7,1.4,0.8,2.4c0.3,1.6-1.6,3.3-3,3.5c-3.3,0.4-4.4-7.9-5.5-10.3c-1.5,3.4-5,11.1-9,10.6
				c-0.2-0.6-1.3-3.7-1.2-4C-62.1,61.5-60.3,60-59,60.1z M-170,27.8c3.7,2.4,25.3,11.4,30.5,13c1.7,0.6,1.3,0.8,1.9,2.6
				c0.2,0.4,0.5,0.6,0.1,1.1c-1.8,0.1-31.7-12.6-32.1-14.2C-169.7,29.5-170.3,28.8-170,27.8z M-185.3,48.1c-0.2,0.2-4,10-5.7,8.3
				c-0.1-0.2-0.6-3.4-0.5-3.9c0.3-1,1.5-2,2.5-1.8c1.8-2,3.2-7.2,3.8-7.7c1,3.1,2.3,14.7,7.1,9.1c0.4,0.8,0.4,1.4,0.5,2.4
				c0.4,1.5,0.4,1.1-0.7,2C-183,60.6-184.1,51.1-185.3,48.1z M-80.3,47.6c-1.7,0.1-2-1.3-3.1-2.6c-2.7-3.3-1.8-3.3-0.8-4
				c2.4-1.8,2.4-1.7,4.5-3.6c0.4-0.3,0.7-0.6,1.3-1c1.4-0.4,3.3,3.1,4,4.2c1.2,1.8,0.5,1.6-0.5,2.4C-76,43.9-79.7,46.4-80.3,47.6z
				 M-216.4,7.9c-1.3,0-20.1-9.3-20.1-9.3c-0.2-0.3-1-3-0.5-3.4c0.3-0.4,19.9,9.4,19.9,9.4C-216.9,5.2-216.3,7.3-216.4,7.9z
				 M-147.8,65.9c0,0.6,0.1,0.6,0.4,1c0.1,0.3,0.1,0.7-0.4,0.5c-1.6-0.4-8.3-9.8-3.9-12.1c2-1,4.5,0.8,5.7,2c0.5,0.4,0.7,1,1.1,1.7
				C-143.7,62.4-143.8,64.2-147.8,65.9z M-151.6,59.5c0,0.4,1.7,2.8,1.8,3c0.8-0.1,3.4-1.5,3.7-2.4C-147.6,58.7-150.2,58-151.6,59.5
				z M-91.9,18.7c-0.4,0-0.5,0-0.6,0c-0.2-0.7-0.6-2.2-1.1-2.6c-2.5-2-5.5,1.7-4,5.9c0.7,1.8,5.2,8.8,5,9.8c0,0.4,0,0.1-0.1,0.3
				c-0.4,0.1-0.6,0-0.8-0.4c-2.4-4.1-10.1-15-4.3-19.3C-93.7,9.9-90.7,16.7-91.9,18.7z M-152-21.4c0.1,0,8.7,1.1,9.2,1.3
				c3.2,1.1,5.3,2.6,7,5.4c3.9,6.5-2.2,6.7-3.3,5.1c-0.4-0.7-1.7-2.5-1.2-3.2c0,0,5.8,1,2.7-1.9C-141-17.6-151-20.2-152-21.4z
				 M-50.1,38.5c0,0-0.7-4.8-3.2-3.4c-3.4,1.3-0.8,9.2,0.3,11.3c0.4,0.8,0.2,0.7-0.3,0.1c-1.6-2.1-6.1-12-1-15
				C-50.7,29.3-48.6,37.7-50.1,38.5z M-44.1-11.9c-0.5,0.1-0.5-0.3-0.6-0.8c-0.6-2.2-3-2.1-3.7,0.5c-1.1,4,3.4,9.4,3.1,10.7
				c-1.7-0.1-4.9-9.8-4.9-11.9c0-2.3,1.7-5.6,3.8-4.3C-44.7-16.7-43.5-13-44.1-11.9z M11.6,39.4c-0.9,0-1.3-5.1-3.6-2
				c-2.4,3.4,3.3,11.4,2.1,12.2c-1,0.9-7.5-14.1-2.4-16.5C10.6,31.8,12.3,38.2,11.6,39.4z M-163.4,57c-0.6,0-3.4-3.7-4.6-0.8
				c-1,3.2,3.6,9.3,3.5,10.1c-2,0-8.7-13.2-3.2-14.9C-164.6,50.5-162.4,55.5-163.4,57z M-193.8,38.9c-0.9,0.2-1-3.3-3-2.7
				c-3.8,1-0.3,8.5,0.7,10.5c2.7,8.6-8.4-12.2-1.8-14.2C-195,31.7-193.8,36.6-193.8,38.9z M-118.7,7.8c-0.7-0.1-0.4-2.5-2.5-1.7
				c-2.6,1,0.2,6.1,1,7.5c0.4,0.5,0.5,0.9,0.4,1.6c-0.6,0-0.4,0.2-0.8-0.7c-5.6-10.1,0-13.3,1.9-9C-118.5,6-118.1,7.3-118.7,7.8z
				 M-17.2,2.2c-0.5-0.4-0.4-1.8-1.5-1.7c-2.7,0.3-0.5,5.9,0,7.5c-1.4-0.2-2.7-6.5-2.1-8.1c0.4-1.3,1.9-1.7,2.7-1.3
				C-17-0.7-17.2,1.6-17.2,2.2z M4.4-10.9c-0.8-0.2-0.6-2.3-2.4-1.8c-3,1,2,7.9,1.5,8.5C2.2-4.4,0-10.9,0.1-12.3
				C-0.2-15.7,3-16.7,4.5-12C4.7-11.5,4.7-11.4,4.4-10.9z M-227.8,18.6l-0.1-0.2c-0.9-0.9-2.8-1.7-4.2-2.5c-3-1.8-9-3.2-9.5,1
				c-0.1,1.3,5,9.1,6.1,9.5C-233.6,25.8-228.6,20.4-227.8,18.6z M-243.3,9.1c0.6-0.9,1.3-1.3,2.2-1.6c-20.9-42.9,24-26.1,34.1-7.2
				c0.6,0.9,1.4,3.7,1.7,4.1c1.1-11.4,7.5-14.3,12.7-14c0.4-1,0.5-3.7,1.1-4c1.2,0.5,0.5,3.3,0.8,4.5c0,0.1,26.4,13.3,28.7,13.5
				c1.8,0.1,1.7-1.1,3.1,3.1c0.4,1.1,1.2,2.1,1.3,3.2c-0.4,0.2-6,1.1-7.9,1.6c-9.6,2.5-26.6,11.7-32.9-1.1c-3-6.2,1.4-9.7,2.1-13.7
				c-3.1,1-4.6,3.1-5.8,5.9c-1,2-1.2,4.4-1.3,6.7c-1,10.5-4.2,24.6-10.7,32.8c-0.2,0.2-0.1,0.2-0.4,0.2c-0.6-0.6-1.8-5.3-1.9-5.8
				c-0.4-1.3-0.1-0.9,0.7-2.7c2.9-7.5,9.8-21.9,8.2-30.1c-2-9.2-47.8-32-33.4-0.2c0.2,0.8,0.8,2.2,1.2,3c4.6-0.2,12.5,4.1,14.1,9
				c3.1,9.2-1.8,10.2-6.1,15.3c0.2,1,6.7,8.3,8,13.5c0.1,0.7,0.6,1.6,0.4,2.4c-1.1,0.1-1.1-0.6-1.7-1.4c-1.1-1.9-7.8-11.8-9.3-12.4
				c-0.7,0.4-4,3.4-4.3,4.2c0.5-0.1,3.3-0.5,3.6-0.5c0.4,0.7,0.1,1.1-0.5,1.5c-2.4,1.6-7.8,4.4-9.3,5.9c-0.4,0.3-0.7,0.4-1-0.1
				c-0.3-1.3-1.7-6.6-1.1-7.1c1.5-0.2,7.5-7.6,8.8-9.2c-2.1-3-3.9-6.4-5-9.9C-243.4,16.5-244.7,10.9-243.3,9.1z M-191.7-2.6
				c-0.8,2.8-2.6,5.7-3.8,8.5c-1,2-1.4,2.3,0.6,3.7c6.5,4.8,17.7-2.3,24.3-3.1C-173.1,4.4-188.7-2.4-191.7-2.6z"/>
			<path class="st0" d="M-180.3-31.7c3,0,6,0,9,0c-0.1-4.3-0.3-8.6-0.4-13c3.3,0,6.5,0,9.8,0c0.1,4.3,0.3,8.7,0.4,13
				c2.4,0,4.6,0,7.1,0c-0.4-12.4-0.8-24.8-1-37.1c-2.5,0-4.9,0-7.3,0c0.1,5,0.4,10,0.5,15.1c-3.3,0-6.5,0-9.8,0
				c-0.1-5.1-0.3-10.1-0.4-15.1c-3.1,0-6,0-9,0C-180.9-56.5-180.6-44.1-180.3-31.7 M-143.3-40.1c-0.3-6.8-0.4-13.6-0.7-20.4
				c0.7,0,1.3,0,2,0c1.8,0,3.1,0.3,3.6,0.8c0.9,0.5,1.3,1.5,1.9,2.8c0.4,1.3,0.7,3.5,0.7,6.5c0.1,3.9-0.1,6.6-1,8.1
				s-2.3,2.2-4.5,2.2C-142.1-40.1-142.7-40.1-143.3-40.1z M-87.5-60.9c1.3,0,2.5,0,3.9,0c1.3,0,2.2,0.4,2.8,1.1
				c0.6,0.7,0.8,1.6,0.9,2.8c0.1,1.1-0.1,2-0.6,2.7c-0.6,0.7-1.5,1-2.9,1c-1.4,0-2.6,0-3.9,0C-87.4-55.9-87.5-58.4-87.5-60.9z
				 M-54-54.7c-1,4.4-1.9,8.9-2.8,13.4c-1.1-4.5-2.3-8.9-3.1-13.4C-58.1-54.7-56.1-54.7-54-54.7z M-38.7-31.7c2.5,0,5.1,0,7.9,0
				c3.3-6.8,6.6-13.7,10-20.5c0,6.8,0.1,13.7,0.3,20.5c2.6,0,5.3,0,7.5,0c-0.1-12.4-0.4-24.8-0.5-37.1c-2.4,0-4.9,0-7.5,0
				c-3.4,6.8-6.8,13.6-10,20.4c0-6.8-0.1-13.6-0.3-20.4c-2.6,0-5.4,0-8,0C-39-56.5-38.9-44.1-38.7-31.7z M-9.9-31.7
				c2.4,0,4.9,0,7.4,0c0-4.6-0.1-9.4-0.1-14.1c2.6,4.7,5.3,9.4,8,14c3.3,0,6.5,0,9.8,0c-2.9-4.6-5.9-9.3-8.9-13.9
				c2.9-7.7,5.9-15.5,8.9-23.2c-3.1,0-6.1,0-9.3,0c-1.6,5.1-3.3,10.1-4.8,15.3c-1.4-2.1-2.6-4.2-4-6.2c0-3,0-6-0.1-9
				c-2.5,0-5,0-7.5,0C-10.3-56.5-10.2-44.1-9.9-31.7z M-245.1-31.7c2.5,0,5.1,0,7.6,0c0.8-6.9,1.4-13.8,2.3-20.7
				c1.5,6.9,3.1,13.9,4.7,20.7c2.6,0,5.1,0,7.6,0c1.1-6.9,2.4-13.9,3.5-20.8c1.1,6.9,2.3,13.9,3.4,20.8c2.6,0,5.1,0,7.7,0
				c-2.3-12.3-4.5-24.8-6.8-37.2c-2.6,0-5.4,0-8,0c-1.3,7.8-2.6,15.6-3.9,23.4c-1.8-7.8-3.5-15.6-5.3-23.4c-2.8,0-5.4,0-7.9,0
				C-241.9-56.5-243.5-44.1-245.1-31.7z M-195.3-54.7c-1,4.4-1.9,8.9-2.8,13.4c-1.1-4.5-2.3-8.9-3.1-13.4
				C-199.4-54.7-197.4-54.7-195.3-54.7z M-110.5-54.7c-1,4.4-1.9,8.9-2.8,13.4c-1.1-4.5-2.3-8.9-3.1-13.4
				C-114.6-54.7-112.6-54.7-110.5-54.7z M-108.9-62.8c-3.3,0-6.4,0-9.3,0c-0.5-2-0.9-4.1-1.3-6.1c-2.8,0-5.4,0-8,0
				c3.4,12.4,6.8,24.8,10.2,37.2c2.8,0,5.8,0,8.9,0c3.1-12.4,6.4-24.8,9.7-37.2c-3.1,0-6,0-8.9,0C-108.1-66.8-108.5-64.8-108.9-62.8
				z M-193.6-62.8c-3.3,0-6.4,0-9.3,0c-0.5-2-0.9-4.1-1.3-6.1c-2.8,0-5.4,0-8,0c3.4,12.4,6.8,24.8,10.2,37.2c2.8,0,5.8,0,8.9,0
				c3.1-12.4,6.4-24.8,9.7-37.2c-3.1,0-6,0-8.9,0C-192.9-66.8-193.3-64.8-193.6-62.8z M-52.3-62.8c-3.3,0-6.4,0-9.3,0
				c-0.5-2-0.9-4.1-1.3-6.1c-2.8,0-5.4,0-8,0c3.4,12.4,6.8,24.8,10.2,37.2c2.8,0,5.8,0,8.9,0c3.1-12.4,6.4-24.8,9.7-37.2
				c-3.1,0-6,0-8.9,0C-51.6-66.8-51.9-64.8-52.3-62.8z M-87.3-46.3c1.1,0,2.3,0,3.3,0c1.3,0,2.1,0.3,2.6,0.9
				c0.5,0.6,0.8,1.5,0.8,2.7c0,1.1-0.3,1.9-0.6,2.5c-0.5,0.6-1.3,0.9-2.4,0.9c-1.3,0-2.4,0-3.4,0C-87.1-41.6-87.1-43.9-87.3-46.3z
				 M-94.7-31.7c4.8,0,9.5-0.1,14.4-0.1c5.5,0,7.3-4.4,7.3-9.3c0-3-1.4-6.8-4.3-8.1c4.1-1.5,5.1-5.2,5-9.2
				c-0.2-6.4-3.1-10.5-10-10.5c-4.5,0-8.8,0-13.2,0C-95.2-56.5-94.9-44.1-94.7-31.7z M-151.1-31.7c3.9,0,7.9,0,12.1,0
				c2.3,0,4.4-0.4,5.7-1.3c1.6-0.9,2.6-2.2,3.6-3.9c0.9-1.7,1.6-3.7,1.9-6c0.4-2.3,0.5-4.7,0.4-7.2c-0.1-4-0.4-7.1-1.2-9.3
				c-0.7-2.2-1.8-4-2.9-5.5c-1.2-1.5-2.5-2.5-3.8-2.9c-1.9-0.7-3.5-1-5-1c-4.2,0-8.2,0-12.3,0C-152-56.5-151.6-44.1-151.1-31.7z"/>
		</g>
		<g>
			<path class="st0" d="M65-45.1c0,0,2.6,0.9,4.2,1.1c0,0,0.5,0.7,1,1.2c-0.4,0.3-0.8,0.6-1.2,0.8c-1.1-1.1-4.3-3.7-8.1-0.9
				c0,0-0.6,0.4-1,0.5c-0.4,0.1-7,2.3-7,2.3c-0.1,0-0.2,0-0.3,0c0,0-0.2,0.1-0.2,0.3c0,0.2,0.5,0.2,0.7,0.2c0.2-0.1,5.9-2,7.9-2.5
				c0,0,2.6,0.8,4.2,0.8c0,0,0.6,0.8,1.1,1.2c-0.4,0.3-0.8,0.6-1.2,0.9c-1.2-1.2-4.3-3.3-7.8-0.6c0,0-0.6,0.4-1,0.5
				c-0.4,0.1-7,2.2-7,2.2c-0.1,0-0.2,0-0.2,0c0,0-0.2,0.1-0.2,0.3c0,0.2,0.5,0.2,0.7,0.2c0.2-0.1,5.9-1.9,7.9-2.4
				c0,0,2.6,0.8,4.2,0.8c0,0,0.5,0.6,1,1c-0.4,0.3-0.8,0.6-1.2,1c-1.2-1-4.5-3.1-7.8-0.1c0,0-0.5,0.4-0.9,0.6
				c-0.4,0.1-6.7,2.7-6.7,2.7c-0.1,0-0.2,0-0.2,0.1c0,0-0.2,0.1-0.2,0.3c0,0.2,0.5,0.2,0.7,0.1c0.2-0.1,5.7-2.3,7.6-3
				c0,0,2.6,0.6,4.2,0.5c0,0,0.6,0.6,1.1,1c-0.4,0.3-0.8,0.7-1.1,1c-1.2-0.9-4.7-2.9-7.9,0.4c0,0-0.5,0.4-0.9,0.6
				C48.9-32,42.9-29,42.9-29c-0.1,0-0.2,0-0.2,0.1c0,0-0.2,0.1-0.2,0.3c0.1,0.2,0.5,0.1,0.7,0.1c0.2-0.1,5.4-2.8,7.3-3.5
				c0,0,2.6,0.3,4.2,0.2c0,0,0.7,0.6,1.2,0.9c-0.4,0.4-0.7,0.7-1.1,1.1c-1.1-0.7-4.9-2.8-7.9,0.9c0,0-0.4,0.5-0.8,0.7
				c-0.4,0.2-6.1,3.7-6.1,3.7c-0.1,0-0.2,0.1-0.2,0.1c0,0-0.2,0.1-0.1,0.3c0.1,0.2,0.6,0.1,0.7,0c0.1-0.1,5.1-3.2,6.9-4.1
				c0,0,2.6,0.1,4.1-0.2c0,0,0.8,0.6,1.4,0.9c-0.4,0.4-0.7,0.8-1,1.2c-1.4-0.8-4.8-2.1-7.5,1.2c0,0-0.4,0.5-0.8,0.7
				c-0.4,0.2-6,3.7-6,3.7c-0.1,0-0.2,0.1-0.2,0.1c0,0-0.2,0.1-0.1,0.3c0.1,0.2,0.6,0.1,0.7,0c0.1-0.1,5.1-3.1,6.9-4.1
				c0,0,2.6,0.1,4.1-0.2c0,0,0.6,0.5,1.1,0.7c-0.3,0.4-0.7,0.9-1,1.3c-1.5-0.7-4.9-1.7-7.3,1.8c0,0-0.4,0.5-0.7,0.7
				c-0.3,0.2-5.6,4.2-5.6,4.2c-0.1,0-0.1,0.1-0.2,0.1c0,0-0.2,0.1-0.1,0.3c0.1,0.2,0.6,0.1,0.7-0.1c0.1-0.1,4.7-3.6,6.4-4.6
				c0,0,2.6-0.1,4-0.5c0,0,0.6,0.4,1.2,0.6c-0.3,0.5-0.6,0.9-0.9,1.4c-1.5-0.5-5.1-1.3-7.1,2.4c0,0-0.3,0.5-0.7,0.8
				c-0.3,0.3-5.1,4.7-5.1,4.7c-0.1,0-0.1,0.1-0.2,0.1c0,0-0.2,0.2-0.1,0.3c0.1,0.2,0.6,0,0.7-0.1c0.1-0.1,4.3-4,5.9-5.2
				c0,0,2.5-0.4,3.9-0.9c0,0,0.7,0.3,1.2,0.5c-0.3,0.5-0.5,1-0.8,1.5c-1.4-0.4-5.2-0.9-6.8,3.1c0,0-0.3,0.6-0.6,0.9
				c-0.3,0.3-4.6,5.1-4.6,5.1c-0.1,0-0.1,0.1-0.2,0.1c0,0-0.2,0.2,0,0.3c0.1,0.1,0.5-0.1,0.7-0.2c0.1-0.1,3.9-4.3,5.3-5.7
				c0,0,2.4-0.6,3.8-1.3c0,0,0.7,0.3,1.3,0.4c-0.2,0.5-0.4,1.1-0.6,1.6c-1.4-0.2-5.2-0.4-6.5,3.7c0,0-0.2,0.6-0.5,0.9
				c-0.3,0.3-4,5.5-4,5.5C31-0.1,31-0.1,30.9,0c0,0-0.1,0.2,0,0.3C31,0.4,31.4,0.2,31.5,0c0.1-0.1,3.4-4.7,4.6-6.1
				c0,0,2.3-0.8,3.6-1.7c0,0,0.8,0.2,1.3,0.3c-0.2,0.6-0.3,1.1-0.5,1.7c-1.4-0.1-5.2,0.1-6,4.3c0,0-0.1,0.6-0.4,0.9
				c-0.2,0.3-3.4,5.8-3.4,5.8c0,0.1-0.1,0.1-0.1,0.2c0,0-0.1,0.2,0,0.3c0.1,0.1,0.5-0.2,0.6-0.3c0.1-0.2,2.8-5,3.9-6.5
				c0,0,2.2-1.1,3.3-2c0,0,0.8,0.1,1.3,0.1c-0.1,0.6-0.2,1.1-0.3,1.7c-1.4,0.1-5.1,0.7-5.4,4.9c0,0-0.1,0.6-0.3,1
				c-0.2,0.4-2.7,6.1-2.7,6.1c0,0.1-0.1,0.1-0.1,0.2c0,0-0.1,0.2,0.1,0.3c0.2,0.1,0.5-0.2,0.6-0.4c0.1-0.2,2.3-5.2,3.2-6.9
				c0,0,2.1-1.3,3.1-2.3c0,0,0.8,0,1.3,0c-0.1,0.6-0.1,1.2-0.1,1.8c-1.4,0.2-4.9,1.2-4.8,5.4c0,0,0,0.6-0.2,1c-0.1,0.4-2,6.3-2,6.3
				c0,0.1-0.1,0.1-0.1,0.2c0,0-0.1,0.2,0.1,0.3c0.2,0.1,0.5-0.3,0.5-0.4c0-0.2,1.7-5.3,2.4-7.1c0,0,1.9-1.5,2.8-2.6
				c0,0,0.7,0,1.3-0.2c0,0.6,0,1.2,0.1,1.8c-1.4,0.4-4.7,1.7-4.2,5.8c0,0,0,0.6-0.1,1c-0.1,0.4-1.4,6.4-1.4,6.4
				c0,0.1-0.1,0.1-0.1,0.2c0,0-0.1,0.2,0.1,0.3c0.2,0.1,0.4-0.3,0.5-0.5c0-0.2,1.2-5.4,1.7-7.2c0,0,1.7-1.6,2.5-2.8
				c0,0,0.7-0.1,1.2-0.3c0.1,0.6,0.2,1.2,0.3,1.8c-1.4,0.5-4.4,2.2-3.5,6.1c0,0,0.1,0.6,0,1c-0.1,0.4-0.7,6.5-0.7,6.5
				c0,0.1,0,0.1-0.1,0.2c0,0,0,0.2,0.1,0.3c0.2,0.1,0.4-0.3,0.4-0.5c0-0.2,0.6-5.5,1-7.3c0,0,1.5-1.8,2.2-3c0,0,0.7-0.2,1.2-0.4
				c0.1,0.6,0.3,1.2,0.5,1.8c-1.3,0.6-4.1,2.5-2.9,6.3c0,0,0.2,0.6,0.1,0.9c0,0.4-0.1,6.4-0.1,6.4c0,0.1,0,0.1,0,0.2
				c0,0,0,0.2,0.2,0.3c0.2,0,0.4-0.4,0.4-0.5c0-0.2,0.1-5.5,0.3-7.3c0,0,1.3-1.9,1.9-3.2c0,0,0.6-0.2,1.1-0.5
				c0.2,0.6,0.4,1.2,0.6,1.8c-1.2,0.8-3.8,2.9-2.3,6.5c0,0,0.2,0.5,0.2,0.9c0,0.4,0.4,6.4,0.4,6.4c0,0.1,0,0.1,0,0.2
				c0,0,0,0.2,0.2,0.2c0.2,0,0.3-0.4,0.3-0.6c0-0.2-0.4-5.4-0.4-7.2c0,0,1.2-2,1.6-3.3c0,0,0.6-0.3,1-0.6c0.3,0.6,0.5,1.2,0.8,1.7
				c-1.2,0.9-3.5,3.1-1.7,6.5c0,0,0.2,0.5,0.3,0.9c0,0.4,0.9,6.3,0.9,6.3c0,0.1,0,0.1,0,0.2c0,0,0,0.2,0.2,0.2
				c0.2,0,0.3-0.4,0.3-0.6c0-0.2-0.8-5.3-0.9-7.1c0,0,1-2,1.3-3.4c0,0,0.6-0.3,1-0.6c0.3,0.6,0.6,1.1,1,1.7c-1.1,1-3.2,3.4-1.2,6.6
				c0,0,0.3,0.5,0.3,0.9c0.1,0.4,1.4,6.1,1.4,6.1c0,0.1,0,0.1,0,0.2c0,0,0,0.2,0.2,0.2c0.2,0,0.3-0.4,0.2-0.6c0-0.2-1.2-5.2-1.5-6.9
				c0,0,0.8-2.1,1-3.4c0,0,0.5-0.3,0.9-0.7c0.4,0.5,0.7,1.1,1.1,1.6c-1,1-2.9,3.6-0.7,6.6c0,0,0.3,0.5,0.4,0.8
				c0.1,0.4,1.8,5.9,1.8,5.9c0,0.1,0,0.1,0,0.2c0,0,0.1,0.2,0.2,0.2c0.2,0,0.2-0.5,0.2-0.6c-0.1-0.1-1.6-5-2-6.8
				c0,0,0.6-2.1,0.7-3.5c0,0,0.5-0.4,0.9-0.7c0.4,0.5,0.8,1,1.2,1.5c-0.9,1.1-2.7,3.7-0.2,6.6c0,0,0.3,0.4,0.5,0.8
				c0.1,0.3,2.2,5.7,2.2,5.7c0,0.1,0,0.1,0,0.2c0,0,0.1,0.2,0.2,0.2c0.2,0,0.2-0.5,0.1-0.6c-0.1-0.1-1.9-4.9-2.4-6.6
				c0,0,0.5-2.1,0.5-3.5c0,0,0.5-0.4,0.8-0.8c0.4,0.5,0.9,1,1.3,1.5c-0.8,1.1-2.4,3.8,0.2,6.5c0,0,0.4,0.4,0.5,0.8
				c0.1,0.3,2.6,5.5,2.6,5.5c0,0.1,0,0.1,0.1,0.2c0,0,0.1,0.2,0.2,0.2c0.2,0,0.2-0.5,0.1-0.6c-0.1-0.1-2.2-4.7-2.8-6.3
				c0,0,0.3-2.1,0.2-3.4c0,0,0.5-0.4,0.7-0.9c0.5,0.5,1,0.9,1.4,1.4c-0.9,1.2-2,3.7,0.4,6.2c0,0,0.4,0.4,0.5,0.8
				c0.1,0.3,2.5,5.5,2.5,5.5c0,0.1,0,0.1,0.1,0.2c0,0,0.1,0.2,0.2,0.2c0.2,0,0.2-0.5,0.1-0.6c-0.1-0.1-2.2-4.7-2.8-6.3
				c0,0,0.3-2.1,0.2-3.4c0,0,0.4-0.3,0.6-0.7c0.1,0.1,0.2,0.2,0.3,0.3c0.4,0.4,0.8,0.7,1.2,1.1c-0.8,1.3-1.7,3.8,0.7,6.1
				c0,0,0.4,0.4,0.5,0.7c0.2,0.3,2.8,5.3,2.8,5.3c0,0.1,0,0.1,0.1,0.2c0,0,0.1,0.2,0.3,0.1c0.2,0,0.1-0.5,0.1-0.6
				c-0.1-0.1-2.4-4.5-3.1-6c0,0,0.2-2.1,0-3.4c0,0,0.3-0.4,0.6-0.7c0.5,0.4,1.1,0.9,1.7,1.3c-0.7,1.3-1.5,3.9,1.1,6
				c0,0,0.4,0.4,0.6,0.7c0.2,0.3,3.1,5,3.1,5c0,0.1,0.1,0.1,0.1,0.2c0,0,0.1,0.2,0.3,0.1c0.2-0.1,0.1-0.5,0-0.6
				c-0.1-0.1-2.7-4.3-3.4-5.8c0,0,0.1-2.1-0.2-3.3c0,0,0.3-0.4,0.5-0.8c0.6,0.4,1.2,0.8,1.7,1.2c-0.6,1.3-1.3,3.9,1.4,5.9
				c0,0,0.4,0.3,0.6,0.6c0.2,0.3,3.4,4.8,3.4,4.8c0,0.1,0.1,0.1,0.1,0.2c0,0,0.1,0.2,0.3,0.1c0.1-0.1,0.1-0.5,0-0.6
				c-0.1-0.1-2.9-4.1-3.7-5.5c0,0-0.1-2-0.4-3.3c0,0,0.3-0.4,0.5-0.8c0.6,0.4,1.2,0.8,1.8,1.1c-0.5,1.3-1.1,4,1.7,5.8
				c0,0,0.4,0.3,0.6,0.6c0.2,0.3,3.6,4.6,3.6,4.6c0,0.1,0.1,0.1,0.1,0.2c0,0,0.1,0.2,0.3,0.1c0.1-0.1,0.1-0.5,0-0.6
				c-0.1-0.1-3.1-3.9-4-5.3c0,0-0.2-2-0.5-3.2c0,0,0.3-0.4,0.4-0.8c0.6,0.4,1.2,0.7,1.9,1.1c-0.5,1.3-0.9,4,2,5.7
				c0,0,0.4,0.3,0.7,0.6c0.2,0.3,3.8,4.3,3.8,4.3c0,0.1,0.1,0.1,0.1,0.2c0,0,0.1,0.2,0.3,0.1c0.1-0.1,0-0.5-0.1-0.6
				c-0.1-0.1-3.2-3.7-4.2-5c0,0-0.3-2-0.7-3.1c0,0,0.2-0.5,0.4-0.9c0.6,0.3,1.3,0.7,1.9,1c-0.4,1.4-0.7,3.8,2,5.4
				c0,0,0.4,0.3,0.7,0.5c0.2,0.3,3.8,4.3,3.8,4.3c0,0.1,0.1,0.1,0.1,0.2c0,0,0.1,0.2,0.3,0.1c0.1-0.1,0-0.5-0.1-0.6
				c-0.1-0.1-3.2-3.7-4.2-5c0,0-0.3-1.9-0.7-3.1c0,0,0.2-0.4,0.4-0.7c0.7,0.3,1.4,0.6,2,0.9c-0.3,1.4-0.5,3.8,2.3,5.2
				c0,0,0.5,0.3,0.7,0.5c0.2,0.3,3.9,4,3.9,4c0,0.1,0.1,0.1,0.1,0.2c0,0,0.1,0.1,0.3,0.1c0.1-0.1,0-0.5-0.1-0.6
				c-0.1-0.1-3.4-3.5-4.4-4.7c0,0-0.4-1.9-0.9-3c0,0,0.2-0.4,0.3-0.7c0.7,0.3,1.4,0.6,2.1,0.8c-0.3,1.4-0.3,3.8,2.5,5.1
				c0,0,0.5,0.2,0.7,0.5c0.2,0.2,4.1,3.8,4.1,3.8c0,0.1,0.1,0.1,0.1,0.2c0,0,0.1,0.1,0.3,0c0.1-0.1,0-0.5-0.1-0.6
				c-0.1-0.1-3.5-3.3-4.6-4.4c0,0-0.5-1.9-1-2.9c0,0,0.2-0.4,0.3-0.8c0.7,0.3,1.4,0.5,2.1,0.7c-0.2,1.3-0.2,3.8,2.8,4.9
				c0,0,0.5,0.2,0.7,0.4c0.2,0.2,4.3,3.5,4.3,3.5c0,0,0.1,0.1,0.1,0.1c0,0,0.1,0.1,0.3,0c0.1-0.1,0-0.5-0.1-0.6
				c-0.1-0.1-3.6-3.1-4.8-4.2c0,0-0.6-1.8-1.2-2.8c0,0,0.1-0.4,0.2-0.8c0.7,0.2,1.4,0.4,2.2,0.7c-0.2,1.4,0,3.7,2.7,4.7
				c0,0,0.5,0.2,0.7,0.4c0.2,0.2,4.2,3.5,4.2,3.5c0,0,0.1,0.1,0.1,0.1c0,0,0.1,0.1,0.3,0c0.1-0.1,0-0.5-0.1-0.6
				c-0.1-0.1-3.6-3-4.7-4.1c0,0-0.6-1.8-1.1-2.8c0,0,0.1-0.3,0.2-0.7c0.8,0.2,1.5,0.4,2.3,0.6c-0.1,1.4,0.2,3.6,3,4.5
				c0,0,0.5,0.2,0.7,0.4c0.2,0.2,4.3,3.3,4.3,3.3c0,0,0.1,0.1,0.1,0.1c0,0,0.1,0.1,0.3,0c0.1-0.1-0.1-0.5-0.2-0.5
				c-0.1-0.1-3.7-2.8-4.9-3.8c0,0-0.6-1.7-1.3-2.7c0,0,0.1-0.3,0.2-0.7c0.8,0.2,1.5,0.3,2.3,0.5c0,1.3,0.3,3.6,3.2,4.4
				c0,0,0.5,0.2,0.7,0.3c0.3,0.2,4.5,3,4.5,3l0.1,0.1c0,0,0.1,0.1,0.3,0c0.1-0.1-0.1-0.5-0.2-0.5c-0.1-0.1-3.8-2.6-5-3.5
				c0,0-0.7-1.7-1.4-2.6c0,0,0.1-0.3,0.1-0.7c0.5,0.1,0.9,0.2,1.4,0.3c0.1,1.5,1.3,2.7,2.8,3c3,0.5,1,0.3,6.1,2.3
				c0.7-0.1-0.2-0.4-0.2-0.4l-5.4-3.4c-0.6-0.3-0.9-0.7-0.9-1.1c0.1,0,0.2,0,0.3,0.1c0.5,0.1,0.9-0.3,1-0.7c0.1-0.5-0.3-0.9-0.7-1
				c-0.1,0-0.2,0-0.2,0c0.2-0.3,0.6-0.5,1.1-0.6l0,0l6-1.3c0,0,1,0.1,0.3-0.3c-6.1,0.3-3.1,0.6-6.3,0c-1.5-0.3-3,0.5-3.6,1.8
				c-0.5-0.1-1-0.2-1.5-0.3c0.1-0.4,0.1-0.7,0.1-0.7c0.9-0.7,2-2.1,2-2.1c1.4-0.5,5.8-1.7,6-1.7c0.1,0,0.5-0.4,0.4-0.5
				c-0.1-0.1-0.2-0.1-0.2-0.1l-0.2,0.1c0,0-4.9,1.4-5.2,1.5c-0.3,0.1-0.8,0.1-0.8,0.1c-2.8-0.1-3.9,1.7-4.3,3
				c-0.8-0.2-1.5-0.3-2.2-0.5c0.1-0.4,0.1-0.7,0.1-0.7c1-0.7,2.2-2,2.2-2c1.5-0.5,6-1.4,6.1-1.4c0.1,0,0.5-0.4,0.4-0.5
				c-0.1-0.1-0.2-0.1-0.2-0.1c-0.1,0-0.1,0-0.2,0.1c0,0-5,1.1-5.3,1.2c-0.3,0.1-0.8,0.1-0.8,0.1c-2.8-0.3-4,1.6-4.5,2.9
				c-0.7-0.2-1.5-0.4-2.2-0.6c0.1-0.4,0.2-0.7,0.2-0.7c1-0.6,2.3-1.9,2.3-1.9c1.5-0.4,6.1-1.1,6.2-1.1c0.1,0,0.5-0.4,0.5-0.5
				c-0.1-0.1-0.2-0.1-0.2-0.1c-0.1,0-0.1,0-0.2,0.1c0,0-5.1,0.9-5.4,1c-0.3,0.1-0.8,0-0.8,0c-2.9-0.4-4.2,1.4-4.7,2.7
				c-0.7-0.2-1.5-0.4-2.2-0.7c0.1-0.3,0.2-0.7,0.2-0.7c1-0.6,2.3-2,2.3-2c1.5-0.4,6.1-1.1,6.3-1.1c0.1,0,0.5-0.4,0.5-0.5
				c-0.1-0.1-0.2-0.1-0.2-0.1c-0.1,0-0.1,0-0.2,0.1c0,0-5.2,0.9-5.5,1c-0.3,0.1-0.8,0-0.8,0c-2.8-0.4-4.1,1.3-4.7,2.6
				c-0.7-0.2-1.4-0.5-2.1-0.7c0.1-0.4,0.2-0.7,0.2-0.7c1.1-0.6,2.5-1.9,2.5-1.9c1.6-0.3,6.2-0.8,6.4-0.8c0.1,0,0.5-0.3,0.5-0.5
				c0-0.1-0.2-0.1-0.2-0.1c-0.1,0-0.1,0-0.2,0.1c0,0-5.3,0.7-5.6,0.7c-0.3,0.1-0.8,0-0.8,0c-2.8-0.6-4.3,1.1-4.9,2.4
				c-0.7-0.3-1.4-0.5-2-0.8c0.1-0.4,0.3-0.7,0.3-0.7c1.1-0.5,2.6-1.8,2.6-1.8c1.6-0.2,6.3-0.5,6.5-0.5c0.1,0,0.6-0.3,0.5-0.4
				c0-0.1-0.2-0.1-0.2-0.1c-0.1,0-0.1,0-0.2,0c0,0-5.3,0.4-5.7,0.4c-0.3,0-0.8-0.1-0.8-0.1c-2.9-0.8-4.4,1-5.1,2.2
				c-0.7-0.3-1.3-0.6-2-0.9c0.2-0.4,0.3-0.8,0.3-0.8c1.2-0.5,2.7-1.6,2.7-1.6c1.6-0.2,6.4-0.2,6.6-0.2c0.1,0,0.6-0.3,0.5-0.4
				c0-0.2-0.2-0.1-0.2-0.1c-0.1,0-0.1,0-0.2,0c0,0-5.4,0.1-5.7,0.1C87.5,57.1,87,57,87,57c-2.9-0.9-4.5,0.8-5.3,2
				c-0.7-0.3-1.3-0.6-2-1c0.1-0.3,0.3-0.6,0.3-0.6c1.2-0.5,2.7-1.7,2.7-1.7c1.6-0.2,6.5-0.2,6.6-0.2c0.1,0,0.6-0.3,0.5-0.4
				c0-0.2-0.2-0.1-0.2-0.1c-0.1,0-0.1,0-0.2,0c0,0-5.5,0.1-5.8,0.1c-0.3,0-0.9-0.1-0.9-0.1c-2.8-0.9-4.4,0.6-5.2,1.8
				c-0.6-0.3-1.3-0.7-1.9-1c0.2-0.3,0.3-0.7,0.3-0.7c1.2-0.4,2.9-1.5,2.9-1.5c1.7-0.1,6.5,0.2,6.7,0.2c0.2,0,0.6-0.2,0.6-0.4
				c0-0.2-0.2-0.2-0.2-0.2c-0.1,0-0.1,0-0.2,0c0,0-5.5-0.2-5.9-0.2c-0.3,0-0.9-0.2-0.9-0.2c-2.8-1-4.5,0.4-5.4,1.6
				c-0.6-0.4-1.2-0.7-1.8-1.1c0.2-0.3,0.4-0.7,0.4-0.7c1.2-0.3,3-1.4,3-1.4c1.7,0,6.6,0.5,6.7,0.5c0.2,0,0.6-0.2,0.6-0.3
				c0-0.2-0.2-0.2-0.2-0.2c-0.1,0-0.1,0-0.2,0c0,0-5.6-0.5-5.9-0.5c-0.3,0-0.9-0.2-0.9-0.2c-2.8-1.2-4.6,0.2-5.6,1.4
				c-0.6-0.4-1.1-0.8-1.7-1.2c0.2-0.3,0.4-0.7,0.4-0.7c1.3-0.3,3.1-1.2,3.1-1.2c1.7,0.1,6.6,0.9,6.7,0.9c0.2,0,0.6-0.1,0.6-0.3
				c0-0.2-0.2-0.2-0.2-0.2c-0.1,0-0.1,0-0.2,0c0,0-5.6-0.8-5.9-0.8c-0.4,0-0.9-0.3-0.9-0.3c-2.8-1.4-4.7,0-5.7,1.1
				c-0.5-0.4-1.1-0.8-1.6-1.2c0.3-0.3,0.5-0.7,0.5-0.7c1.3-0.2,3.2-1,3.2-1c1.7,0.2,6.6,1.3,6.7,1.3c0.2,0,0.6-0.1,0.6-0.3
				c0-0.2-0.2-0.2-0.2-0.2c-0.1,0-0.1,0-0.2,0c0,0-5.6-1.1-5.9-1.2c-0.4-0.1-0.8-0.3-0.8-0.3c-2.7-1.6-4.8-0.3-5.9,0.8
				c-0.4-0.3-0.8-0.7-1.1-1c-0.1-0.1-0.2-0.2-0.4-0.3c0.3-0.3,0.6-0.7,0.6-0.7c1.3-0.1,3.3-0.9,3.3-0.9c1.7,0.3,6.6,1.7,6.7,1.7
				c0.1,0.1,0.6-0.1,0.7-0.2c0-0.2-0.2-0.2-0.2-0.2c-0.1,0-0.1,0-0.2,0c0,0-5.5-1.5-5.9-1.6C65.5,43.3,65,43,65,43
				c-2.7-1.8-4.8-0.6-6,0.5c-0.5-0.5-1-0.9-1.5-1.4c0.2-0.3,0.5-0.6,0.5-0.6c1.3-0.1,3.3-0.9,3.3-0.9c1.7,0.3,6.6,1.7,6.8,1.7
				c0.2,0.1,0.6-0.1,0.7-0.2c0-0.2-0.2-0.2-0.2-0.2c-0.1,0-0.1,0-0.2,0c0,0-5.6-1.5-5.9-1.6c-0.4-0.1-0.8-0.4-0.8-0.4
				c-2.5-1.7-4.6-0.7-5.8,0.3c-0.5-0.5-0.9-1-1.3-1.5c0.3-0.3,0.5-0.6,0.5-0.6c1.3,0,3.4-0.7,3.4-0.7c1.7,0.4,6.6,2.1,6.7,2.2
				c0.1,0.1,0.6,0,0.7-0.2c0-0.2-0.2-0.2-0.2-0.2c-0.1,0-0.1,0-0.2,0c0,0-5.5-1.9-5.9-2c-0.4-0.1-0.8-0.4-0.8-0.4
				c-2.4-1.9-4.6-1-5.9-0.1c-0.4-0.5-0.8-1-1.2-1.5c0.3-0.3,0.6-0.6,0.6-0.6c1.4,0,3.5-0.4,3.5-0.4c1.7,0.6,6.4,2.6,6.6,2.7
				c0.1,0.1,0.6,0,0.7-0.1c0-0.2-0.2-0.2-0.2-0.2c-0.1,0-0.1,0-0.2,0c0,0-5.4-2.3-5.8-2.4c-0.3-0.1-0.8-0.5-0.8-0.5
				c-2.3-2.1-4.6-1.3-5.9-0.5c-0.4-0.5-0.7-1.1-1.1-1.6c0.3-0.3,0.6-0.5,0.6-0.5c1.4,0.1,3.6-0.2,3.6-0.2c1.7,0.7,6.3,3.1,6.4,3.1
				c0.1,0.1,0.6,0.1,0.7-0.1c0-0.2-0.2-0.3-0.2-0.3c-0.1,0-0.1,0-0.2-0.1c0,0-5.3-2.7-5.7-2.8c-0.3-0.1-0.8-0.5-0.8-0.5
				c-2.2-2.2-4.5-1.7-6-0.9c-0.3-0.5-0.6-1.1-0.9-1.6c0.4-0.2,0.7-0.5,0.7-0.5c1.4,0.2,3.6,0.1,3.6,0.1c1.6,0.8,6.1,3.6,6.2,3.6
				c0.1,0.1,0.6,0.1,0.7,0c0.1-0.2-0.1-0.3-0.1-0.3c-0.1,0-0.1-0.1-0.2-0.1c0,0-5.1-3.1-5.5-3.3c-0.3-0.2-0.7-0.6-0.7-0.6
				c-2-2.4-4.4-2-5.9-1.4c-0.3-0.6-0.5-1.1-0.8-1.7c0.4-0.2,0.7-0.4,0.7-0.4c1.3,0.4,3.6,0.4,3.6,0.4c1.6,1,5.8,4.1,6,4.2
				c0.1,0.1,0.6,0.2,0.7,0c0.1-0.2-0.1-0.3-0.1-0.3c-0.1,0-0.1-0.1-0.2-0.1c0,0-4.9-3.5-5.2-3.7c-0.3-0.2-0.7-0.7-0.7-0.7
				c-1.8-2.6-4.3-2.4-5.8-1.9c-0.2-0.6-0.4-1.1-0.6-1.7c0.4-0.2,0.8-0.4,0.8-0.4c1.3,0.5,3.6,0.7,3.6,0.7c1.5,1.1,5.5,4.6,5.6,4.7
				c0.1,0.1,0.6,0.3,0.7,0.1c0.1-0.2-0.1-0.3-0.1-0.3c-0.1,0-0.1-0.1-0.2-0.1c0,0-4.6-4-4.9-4.2c-0.3-0.2-0.6-0.7-0.6-0.7
				c-1.6-2.8-4.1-2.8-5.7-2.4c-0.2-0.6-0.3-1.2-0.4-1.7c0.4-0.1,0.8-0.3,0.8-0.3c1.3,0.6,3.6,1.1,3.6,1.1c1.4,1.2,5.1,5.1,5.2,5.2
				c0.1,0.1,0.6,0.3,0.7,0.2c0.1-0.1-0.1-0.3-0.1-0.3c-0.1,0-0.1-0.1-0.2-0.1c0,0-4.3-4.4-4.6-4.7c-0.3-0.3-0.6-0.8-0.6-0.8
				c-1.3-2.9-3.8-3.2-5.5-2.9c-0.1-0.6-0.2-1.2-0.2-1.8c0.4-0.1,0.9-0.2,0.9-0.2c1.2,0.7,3.5,1.4,3.5,1.4c1.3,1.4,4.6,5.6,4.7,5.7
				c0.1,0.1,0.5,0.4,0.7,0.2c0.1-0.1,0-0.3,0-0.3c-0.1-0.1-0.1-0.1-0.2-0.2c0,0-3.9-4.8-4.1-5.1c-0.3-0.3-0.5-0.8-0.5-0.8
				c-1.1-3-3.5-3.5-5.2-3.5c0-0.6,0-1.2-0.1-1.7c0.4-0.1,0.9-0.1,0.9-0.1C42.8,6.8,45,7.7,45,7.7c1.1,1.5,4.1,6.1,4.1,6.2
				c0.1,0.2,0.5,0.4,0.6,0.3c0.1-0.1,0-0.3,0-0.3c-0.1-0.1-0.1-0.1-0.2-0.2c0,0-3.4-5.3-3.6-5.6c-0.2-0.3-0.4-0.9-0.4-0.9
				c-0.8-3.1-3.1-3.9-4.8-4c0-0.6,0.1-1.1,0.1-1.7c0.5,0,0.9-0.1,0.9-0.1c1.1,1,3.2,2.1,3.2,2.1c1,1.6,3.4,6.5,3.5,6.7
				c0.1,0.2,0.5,0.5,0.6,0.4c0.1-0.1,0-0.3,0-0.3c0-0.1-0.1-0.1-0.1-0.2c0,0-2.8-5.6-3-6c-0.2-0.3-0.3-0.9-0.3-0.9
				c-0.4-3.2-2.7-4.2-4.4-4.5c0.1-0.6,0.2-1.1,0.3-1.7c0.5,0,0.9,0,0.9,0c1,1.1,3,2.5,3,2.5c0.8,1.7,2.8,6.9,2.8,7.1
				c0,0.2,0.4,0.5,0.6,0.4C49,7.1,49,6.9,49,6.9c0-0.1-0.1-0.1-0.1-0.2c0,0-2.2-5.9-2.4-6.3c-0.2-0.4-0.2-1-0.2-1
				c-0.1-3.3-2.3-4.5-3.9-5c0.1-0.5,0.3-1.1,0.5-1.6C43.2-7.1,43.7-7,43.7-7c0.9,1.2,2.7,2.8,2.7,2.8c0.6,1.8,2,7.2,2.1,7.4
				c0,0.2,0.3,0.6,0.5,0.5c0.2-0.1,0.1-0.3,0.1-0.3c0-0.1-0.1-0.1-0.1-0.2c0,0-1.6-6.2-1.7-6.6c-0.1-0.4-0.1-1-0.1-1
				c0.3-3.3-1.8-4.8-3.4-5.4c0.2-0.5,0.4-1,0.6-1.5c0.5,0.1,0.9,0.2,0.9,0.2C46-9.9,47.7-8,47.7-8C48.1-6.1,49-0.6,49-0.4
				c0,0.2,0.3,0.6,0.5,0.5c0.2-0.1,0.1-0.3,0.1-0.3c0-0.1,0-0.1-0.1-0.2c0,0-1-6.4-1-6.8c-0.1-0.4,0-1,0-1c0.6-3.3-1.4-5-2.9-5.8
				c0.2-0.5,0.5-1,0.7-1.4c0.5,0.2,1,0.4,1,0.4c0.6,1.4,2.1,3.4,2.1,3.4c0.2,1.9,0.5,7.6,0.5,7.7c0,0.2,0.2,0.6,0.4,0.6
				c0.2,0,0.2-0.3,0.2-0.3c0-0.1,0-0.2-0.1-0.2c0,0-0.3-6.5-0.3-6.9c0-0.4,0.1-1,0.1-1c1-3.3-0.9-5.2-2.4-6.2
				c0.3-0.4,0.6-0.9,0.8-1.3c0.5,0.3,1,0.5,1,0.5c0.5,1.4,1.8,3.6,1.8,3.6c0,2-0.2,7.6-0.2,7.8c0,0.2,0.1,0.7,0.3,0.6
				c0.2,0,0.2-0.3,0.2-0.3c0-0.1,0-0.2,0-0.2c0,0,0.3-6.5,0.3-7c0-0.4,0.2-1,0.2-1c1.3-3.3-0.5-5.4-1.9-6.5c0.3-0.4,0.6-0.8,0.9-1.3
				c0.4,0.3,1,0.6,1,0.6c0.3,1.5,1.5,3.8,1.5,3.8c-0.1,2-0.9,7.6-1,7.8c0,0.2,0.1,0.7,0.3,0.7c0.2,0,0.2-0.3,0.2-0.3
				c0-0.1,0-0.2,0-0.2c0,0,0.9-6.5,1-7c0-0.4,0.3-1,0.3-1c1.7-3.3,0-5.6-1.4-6.7c0.3-0.4,0.7-0.8,1.1-1.2c0.4,0.2,0.7,0.4,0.7,0.4
				c0.3,1.5,1.5,3.8,1.5,3.8c-0.1,2-0.9,7.7-1,7.9c0,0.2,0.1,0.7,0.3,0.7c0.2,0,0.2-0.3,0.2-0.3c0-0.1,0-0.2,0-0.2c0,0,0.9-6.6,1-7
				c0-0.4,0.3-1,0.3-1c1.6-3,0.3-5.2-1-6.5c0.4-0.4,0.7-0.7,1.1-1.1c0.4,0.3,0.8,0.6,0.8,0.6c0.2,1.5,1.2,4,1.2,4
				c-0.3,2-1.6,7.7-1.6,7.8c-0.1,0.2,0,0.7,0.2,0.7c0.2,0,0.2-0.2,0.2-0.2c0-0.1,0-0.2,0-0.2c0,0,1.5-6.5,1.6-7c0.1-0.4,0.4-1,0.4-1
				c1.9-3,0.6-5.4-0.6-6.7c0.4-0.3,0.7-0.7,1.1-1c0.4,0.4,0.8,0.7,0.8,0.7c0.1,1.6,0.8,4.1,0.8,4.1c-0.5,2-2.2,7.6-2.3,7.7
				c-0.1,0.2-0.1,0.7,0.1,0.7c0.2,0,0.3-0.2,0.3-0.2c0-0.1,0-0.2,0-0.2c0,0,2.1-6.5,2.2-6.9c0.1-0.4,0.5-1,0.5-1c2.2-3,1-5.5-0.2-7
				c0.4-0.3,0.8-0.6,1.1-0.9c0.4,0.4,0.8,0.8,0.8,0.8c0,1.6,0.5,4.2,0.5,4.2c-0.6,2-2.8,7.4-2.9,7.6c-0.1,0.2-0.1,0.7,0.1,0.7
				c0.2,0,0.3-0.2,0.3-0.2c0-0.1,0-0.2,0.1-0.2c0,0,2.6-6.3,2.7-6.7c0.1-0.4,0.5-0.9,0.5-0.9c2.5-2.9,1.3-5.6,0.3-7.1
				c0.4-0.3,0.8-0.6,1.2-0.9c0.3,0.4,0.7,0.7,0.7,0.7c0,1.6,0.5,4.2,0.5,4.2c-0.6,2-2.8,7.5-2.9,7.7c-0.1,0.2-0.1,0.7,0.1,0.7
				c0.2,0,0.3-0.2,0.3-0.2c0-0.1,0-0.2,0.1-0.2c0,0,2.6-6.4,2.7-6.8c0.1-0.4,0.6-0.9,0.6-0.9c2.4-2.7,1.5-5.4,0.5-6.9
				c0.4-0.3,0.8-0.6,1.2-0.8c0.3,0.4,0.7,0.9,0.7,0.9c-0.1,1.6,0.2,4.3,0.2,4.3c-0.8,1.9-3.3,7.4-3.4,7.5c-0.1,0.2-0.2,0.7,0,0.7
				c0.2,0,0.3-0.2,0.3-0.2c0-0.1,0-0.2,0.1-0.2c0,0,3-6.3,3.2-6.7c0.2-0.4,0.6-0.9,0.6-0.9c2.7-2.7,1.8-5.5,0.8-7.1
				c0.4-0.3,0.8-0.5,1.2-0.8c0.3,0.5,0.7,1,0.7,1c-0.2,1.6,0,4.3,0,4.3c-0.9,1.9-3.8,7.2-3.9,7.4c-0.1,0.2-0.2,0.7,0,0.7
				c0.2,0.1,0.3-0.2,0.3-0.2l0.1-0.2c0,0,3.4-6.1,3.6-6.5c0.2-0.4,0.7-0.9,0.7-0.9c3.8-3.3,1.3-7.2,0.6-8.3
				c-0.8-1.1-3.8-4.6-8.1-2.1c0,0-0.6,0.3-1.1,0.4c-0.4,0.1-7.4,1.4-7.4,1.4l-0.3,0c0,0-0.3,0-0.3,0.2c0,0.2,0.5,0.3,0.7,0.2
				c0.2,0,6.2-1.2,8.3-1.5c0,0,2.5,1.1,4.1,1.4c0,0,0.4,0.7,0.8,1.2c-0.4,0.3-0.8,0.5-1.2,0.8c-1.1-1.2-4.1-3.8-7.9-1.3
				c0,0-0.6,0.3-1,0.4c-0.4,0.1-7.2,1.8-7.2,1.8c-0.1,0-0.2,0-0.3,0c0,0-0.2,0.1-0.2,0.3c0,0.2,0.5,0.3,0.7,0.2
				C57-43.3,62.9-44.8,65-45.1"/>
			<path class="st0" d="M216-26.1c-0.3-0.9-0.9-2.7-0.3-4.1c0.8-1.9,2.1-3.6-1.6-7.2c-0.5-0.5-0.4-0.2-0.4,0.1
				c0.2,0.8,0.3,2.1-0.6,3.2c-1.4,1.7-1.6,5.2,2.6,8.1C216-25.7,216.1-25.6,216-26.1 M226.5-36.2c-1-0.3-3-0.7-4.6-0.1
				c-2,0.8-3.8,2.1-7.7-1.1c-0.7-0.5,0-0.4,0.2-0.4c0.8,0.1,2.1,0.1,3.3-0.8c1.8-1.4,5.6-1.7,9.1,2.2
				C227.1-36.1,226.7-36.2,226.5-36.2z M219.7-21.9c-0.3-0.9-0.6-2.7,0-4.1c0.9-1.8,2.4-3.4-1-7.2c-0.5-0.5-0.4-0.2-0.4,0.1
				c0.1,0.8,0.2,2.1-0.9,3.2c-1.5,1.6-2,5,1.9,8.2C219.6-21.4,219.8-21.4,219.7-21.9z M230.9-31.1c-0.9-0.3-2.9-0.9-4.5-0.4
				c-2,0.6-3.9,1.8-7.5-1.6c-0.6-0.6,0-0.3,0.2-0.4c0.8,0.2,2.1,0.3,3.3-0.5c1.9-1.3,5.7-1.3,8.8,2.7
				C231.4-30.9,231.1-31,230.9-31.1z M223.1-17.6c-0.2-0.9-0.4-2.7,0.4-4c1-1.7,2.6-3.2-0.4-7.1c-0.4-0.6-0.3-0.2-0.4,0
				c0.1,0.8,0,2-1.1,3c-1.6,1.4-2.4,4.8,1.1,8.2C223-17.2,223.1-17.2,223.1-17.6z M234.9-25.8c-0.9-0.4-2.7-1.1-4.4-0.7
				c-2.1,0.5-4,1.5-7.3-2.2c-0.6-0.6,0-0.3,0.2-0.3c0.8,0.2,2,0.4,3.3-0.3c2-1.1,5.7-0.8,8.3,3.3C235.4-25.6,235.1-25.8,234.9-25.8z
				 M225.8-13.3c-0.1-0.9,0-2.7,0.9-3.9c1.2-1.6,3-2.9,0.5-7.1c-0.3-0.6-0.3-0.3-0.4,0c0,0.7-0.3,2-1.5,2.9
				c-1.8,1.3-2.9,4.5,0.1,8.1C225.7-12.9,225.8-12.9,225.8-13.3z M238.5-20.4c-0.8-0.5-2.6-1.3-4.2-1.1c-2.1,0.3-4,1.1-6.9-2.8
				c-0.5-0.6,0.1-0.3,0.3-0.3c0.7,0.3,2,0.6,3.2,0c2-0.9,5.7-0.3,7.8,4C239-20.2,238.7-20.3,238.5-20.4z M228.5-8.6
				c0-0.9,0.1-2.6,1.1-3.8c1.3-1.6,3.1-2.9,0.9-7c-0.3-0.5-0.3-0.2-0.3,0c-0.1,0.7-0.4,2-1.6,2.9c-1.8,1.3-3.1,4.4-0.4,8
				C228.3-8.2,228.4-8.1,228.5-8.6z M241.6-15.5c-0.8-0.5-2.5-1.3-4.1-1.1c-2,0.3-4,1.1-6.8-2.7c-0.5-0.6,0.1-0.3,0.3-0.3
				c0.7,0.3,1.9,0.6,3.2,0c2-0.9,5.6-0.3,7.7,3.9C242.1-15.3,241.8-15.5,241.6-15.5z M230.3-4c0.1-0.9,0.4-2.6,1.5-3.7
				c1.5-1.4,3.4-2.5,1.7-6.8c-0.2-0.6-0.2-0.3-0.3,0c-0.1,0.7-0.6,1.9-1.9,2.7c-1.9,1.1-3.6,4.1-1.4,7.9
				C230.2-3.6,230.3-3.6,230.3-4z M244.1-9.7c-0.7-0.5-2.3-1.5-3.9-1.5c-2,0.1-4,0.7-6.4-3.3c-0.4-0.7,0.1-0.3,0.3-0.3
				c0.7,0.4,1.8,0.8,3.1,0.3c2.1-0.7,5.5,0.2,7.1,4.6C244.5-9.4,244.2-9.6,244.1-9.7z M231.8,0.5c0.2-0.9,0.8-2.5,2-3.5
				c1.6-1.3,3.6-2.1,2.5-6.6c-0.1-0.6-0.2-0.3-0.3-0.1c-0.2,0.7-0.8,1.8-2.2,2.4c-2,0.8-4,3.6-2.3,7.7
				C231.6,0.9,231.7,0.9,231.8,0.5z M245.9-3.7c-0.6-0.6-2.1-1.7-3.6-1.8c-2-0.1-4,0.2-5.8-3.9c-0.3-0.7,0.1-0.3,0.3-0.2
				c0.6,0.4,1.7,0.9,3,0.7c2.1-0.4,5.4,0.8,6.4,5.3C246.3-3.4,246-3.6,245.9-3.7z M232.7,5c0.3-0.8,1.1-2.4,2.3-3.2
				c1.7-1.1,3.7-1.7,3.3-6.2c0-0.6-0.2-0.3-0.3-0.1c-0.3,0.7-1,1.7-2.5,2.2c-2,0.6-4.3,3.1-3.2,7.3C232.5,5.4,232.6,5.4,232.7,5z
				 M246.9,2.4c-0.6-0.6-1.8-1.9-3.3-2.2c-1.9-0.4-4-0.2-5.1-4.5c-0.2-0.7,0.2-0.3,0.3-0.2c0.5,0.5,1.5,1.1,2.9,1
				c2.1-0.2,5.1,1.4,5.5,5.9C247.3,2.7,247.1,2.5,246.9,2.4z M232.9,9.5c0.4-0.8,1.4-2.3,2.7-2.9c1.8-0.9,3.9-1.3,4.1-5.7
				c0-0.5-0.1-0.3-0.3-0.1c-0.4,0.6-1.2,1.6-2.7,1.9c-2.1,0.4-4.6,2.6-4.2,6.8C232.6,9.8,232.7,9.8,232.9,9.5z M247.1,8.5
				c-0.4-0.7-1.5-2.1-2.9-2.5c-1.8-0.6-3.8-0.7-4.4-5c-0.1-0.7,0.2-0.2,0.4-0.1c0.5,0.5,1.3,1.3,2.7,1.3c2.1,0,4.8,1.9,4.5,6.4
				C247.4,8.9,247.3,8.7,247.1,8.5z M232.6,13.9c0.5-0.7,1.6-2.1,3-2.5c1.9-0.6,3.9-0.8,4.7-5.2c0.1-0.5-0.1-0.3-0.2-0.2
				c-0.5,0.6-1.4,1.4-2.9,1.5c-2,0.1-4.8,2-5,6.2C232.3,14.2,232.4,14.2,232.6,13.9z M246.5,14.5c-0.3-0.7-1.2-2.2-2.5-2.8
				c-1.7-0.8-3.7-1.1-3.5-5.4c0-0.7,0.2-0.2,0.4-0.1c0.4,0.6,1.1,1.4,2.4,1.6c2,0.3,4.4,2.4,3.5,6.7
				C246.7,14.9,246.6,14.7,246.5,14.5z M231.8,18.1c0.6-0.7,1.8-1.8,3.3-2.1c1.9-0.4,3.9-0.3,5.2-4.6c0.2-0.5,0-0.3-0.2-0.2
				c-0.5,0.5-1.6,1.3-3,1.2c-2-0.1-4.9,1.4-5.6,5.6C231.4,18.4,231.5,18.4,231.8,18.1z M245.1,20.2c-0.2-0.8-0.8-2.3-2-3
				c-1.6-0.9-3.4-1.5-2.7-5.7c0.1-0.6,0.2-0.2,0.4,0c0.3,0.6,0.9,1.5,2.1,1.8c1.9,0.5,4,2.9,2.5,7C245.2,20.6,245.1,20.4,245.1,20.2
				z M230.3,22.2c0.7-0.6,2-1.6,3.4-1.8c1.9-0.2,3.8,0.1,5.7-4c0.2-0.4,0-0.3-0.2-0.2c-0.6,0.4-1.7,1.1-3,0.8
				c-1.9-0.3-5,0.9-6.2,4.9C229.9,22.4,230,22.5,230.3,22.2z M242.9,25.7c-0.1-0.8-0.5-2.3-1.6-3.2c-1.4-1.1-3.1-1.8-1.9-5.9
				c0.2-0.6,0.3-0.1,0.4,0c0.2,0.6,0.7,1.6,1.9,2c1.8,0.7,3.5,3.2,1.5,7.1C243,26.1,243,25.9,242.9,25.7z M228.5,25.9
				c0.7-0.5,2.1-1.3,3.5-1.3c1.9,0,3.7,0.5,5.9-3.2c0.3-0.4,0.1-0.3-0.2-0.2c-0.6,0.4-1.7,0.9-3,0.5c-1.9-0.5-5,0.3-6.4,4.1
				C228.1,26.1,228.2,26.1,228.5,25.9z M240.2,30.7c0-0.8-0.2-2.3-1.1-3.3c-1.2-1.2-2.9-2.1-1.1-5.9c0.3-0.6,0.3-0.1,0.3,0
				c0.1,0.6,0.4,1.6,1.6,2.2c1.7,0.9,3,3.5,0.6,7.1C240.3,31.1,240.2,31,240.2,30.7z M226.1,29.7c0.7-0.4,2.2-1.1,3.6-1
				c1.8,0.2,3.6,0.8,6.1-2.7c0.3-0.4,0.1-0.3-0.1-0.2c-0.6,0.3-1.8,0.7-3,0.2c-1.8-0.7-4.9-0.1-6.7,3.4
				C225.7,29.9,225.8,29.9,226.1,29.7z M237,35.4c0.1-0.7,0.1-2.3-0.8-3.3c-1.1-1.3-2.6-2.3-0.4-5.9c0.3-0.5,0.3-0.1,0.3,0.1
				c0,0.6,0.2,1.6,1.3,2.3c1.6,1,2.6,3.7-0.2,7C237,35.8,237,35.6,237,35.4z M223.4,33.4c0.8-0.4,2.3-1,3.6-0.8
				c1.8,0.3,3.5,1,6.3-2.2c0.3-0.3,0.1-0.3-0.1-0.2c-0.6,0.3-1.8,0.6-3,0c-1.7-0.8-4.8-0.4-7,3C222.9,33.6,223,33.6,223.4,33.4z
				 M233.5,39.7c0.1-0.7,0.3-2.3-0.4-3.3c-0.9-1.4-2.3-2.5,0.2-5.8c0.4-0.5,0.3-0.1,0.3,0.1c0,0.6,0.1,1.6,1,2.4
				c1.4,1.1,2.1,3.8-0.9,6.8C233.5,40.1,233.5,39.9,233.5,39.7z M220.3,36.8c0.8-0.3,2.2-0.8,3.5-0.6c1.8,0.4,3.4,1.2,6.2-1.9
				c0.3-0.3,0.1-0.3-0.1-0.2c-0.6,0.2-1.8,0.5-3-0.1c-1.6-0.9-4.7-0.7-6.8,2.5C219.9,36.9,220,36.9,220.3,36.8z M230.3,43.5
				c0.1-0.7,0.3-2.2-0.4-3.2c-0.9-1.3-2.3-2.4,0.2-5.8c0.3-0.5,0.3-0.1,0.3,0.1c0,0.6,0.1,1.6,1,2.3c1.4,1.1,2.1,3.8-0.9,6.7
				C230.3,43.8,230.2,43.7,230.3,43.5z M217,39.9c0.8-0.3,2.3-0.7,3.5-0.3c1.7,0.5,3.3,1.4,6.3-1.5c0.3-0.3,0.2-0.3-0.1-0.2
				c-0.6,0.2-1.8,0.4-2.9-0.3c-1.5-0.9-4.6-0.9-7,2.1C216.5,40,216.6,40,217,39.9z M226.2,47.1c0.2-0.7,0.5-2.1-0.1-3.2
				c-0.8-1.4-2-2.5,0.7-5.6c0.4-0.4,0.3-0.1,0.3,0.1c-0.1,0.6-0.1,1.6,0.8,2.4c1.3,1.2,1.7,3.8-1.4,6.5
				C226.2,47.4,226.2,47.3,226.2,47.1z M213.5,43c0.8-0.2,2.3-0.6,3.5-0.2c1.6,0.5,3.1,1.5,6.3-1.2c0.3-0.2,0.2-0.2-0.1-0.2
				c-0.6,0.1-1.8,0.3-2.9-0.4c-1.4-1-4.4-1.1-7,1.7C213.1,43.1,213.2,43.1,213.5,43z M222,50.4c0.2-0.7,0.6-2.1,0.1-3.1
				c-0.6-1.4-1.8-2.6,1.1-5.5c0.4-0.4,0.3,0,0.3,0.1c-0.1,0.6-0.2,1.5,0.6,2.4c1.2,1.2,1.4,3.8-1.9,6.3C222,50.8,222,50.7,222,50.4z
				 M209.9,46c0.8-0.2,2.3-0.5,3.5-0.1c1.6,0.6,2.9,1.6,6.3-1c0.3-0.2,0.2-0.2-0.1-0.2c-0.6,0.1-1.8,0.2-2.8-0.5
				c-1.3-1-4.3-1.2-7,1.5C209.4,46.1,209.6,46.1,209.9,46z M217.8,53.5c0.3-0.6,0.8-2,0.4-3.1c-0.5-1.4-1.6-2.6,1.5-5.3
				c0.4-0.4,0.3,0,0.2,0.1c-0.2,0.5-0.3,1.5,0.4,2.4c1.1,1.3,1.1,3.8-2.3,6C217.7,53.8,217.7,53.7,217.8,53.5z M206.2,48.6
				c0.8-0.2,2.3-0.4,3.4,0.1c1.5,0.6,2.8,1.7,6.2-0.7c0.3-0.2,0.2-0.2,0-0.2c-0.6,0.1-1.8,0.1-2.7-0.6c-1.3-1-4.1-1.4-7,1.1
				C205.7,48.7,205.9,48.7,206.2,48.6z M213.5,56.3c0.3-0.6,0.9-1.9,0.5-3c-0.4-1.4-1.4-2.7,1.8-5.1c0.4-0.3,0.3,0,0.2,0.1
				c-0.2,0.5-0.4,1.5,0.3,2.3c1,1.3,0.8,3.8-2.6,5.8C213.4,56.6,213.3,56.5,213.5,56.3z M202.4,51.1c0.8-0.1,2.3-0.2,3.3,0.3
				c1.4,0.7,2.7,1.8,6.1-0.4c0.3-0.2,0.2-0.2,0-0.2c-0.6,0.1-1.8,0.1-2.6-0.7c-1.2-1.1-4-1.6-6.9,0.8
				C201.9,51.1,202.1,51.1,202.4,51.1z M209.1,58.9c0.3-0.6,1-1.8,0.7-2.9c-0.4-1.4-1.2-2.7,2.1-5c0.4-0.3,0.2,0,0.2,0.1
				c-0.2,0.5-0.5,1.4,0.1,2.3c0.9,1.3,0.6,3.8-2.9,5.6C209,59.2,209,59.1,209.1,58.9z M198.5,53.4c0.8-0.1,2.2-0.2,3.2,0.4
				c1.4,0.7,2.5,1.8,6.1-0.1c0.3-0.1,0.2-0.2,0-0.2c-0.6,0-1.7,0-2.6-0.8c-1.1-1.1-3.8-1.7-6.8,0.5
				C198.1,53.4,198.2,53.4,198.5,53.4z M204.7,61.3c0.4-0.6,1-1.8,0.8-2.8c-0.3-1.4-1-2.7,2.3-4.8c0.4-0.3,0.2,0,0.2,0.1
				c-0.3,0.5-0.6,1.4,0,2.3c0.8,1.3,0.4,3.7-3.1,5.3C204.6,61.6,204.6,61.5,204.7,61.3z M194.5,55.7c0.8-0.1,2.2-0.2,3.2,0.4
				c1.4,0.7,2.5,1.8,6-0.1c0.3-0.1,0.2-0.2,0-0.2c-0.6,0-1.7,0-2.5-0.8c-1.1-1.1-3.8-1.6-6.7,0.5C194,55.8,194.2,55.8,194.5,55.7z
				 M200.6,63.5c0.4-0.6,1-1.7,0.8-2.8c-0.3-1.3-1-2.6,2.3-4.7c0.4-0.3,0.2,0,0.2,0.1c-0.3,0.5-0.6,1.4,0,2.2
				c0.8,1.3,0.4,3.6-3.1,5.2C200.5,63.8,200.4,63.7,200.6,63.5z M190.5,57.7c0.8-0.1,2.2-0.1,3.1,0.5c1.3,0.7,2.4,1.8,5.9,0.1
				c0.3-0.1,0.2-0.2,0-0.2c-0.6,0-1.7-0.1-2.4-0.9c-1-1.1-3.6-1.7-6.6,0.3C190.1,57.7,190.2,57.7,190.5,57.7z M196.1,65.5
				c0.4-0.5,1.1-1.7,0.9-2.7c-0.2-1.3-0.9-2.6,2.5-4.5c0.4-0.2,0.2,0,0.2,0.1c-0.3,0.5-0.6,1.3-0.1,2.2c0.7,1.3,0.2,3.6-3.3,5
				C196,65.8,196,65.8,196.1,65.5z M186.5,59.6c0.7,0,2.1,0,3,0.6c1.2,0.8,2.2,1.9,5.8,0.3c0.2-0.1,0.2-0.2,0-0.2
				c-0.6,0-1.7-0.1-2.4-0.9c-0.9-1.1-3.5-1.8-6.5,0C186.1,59.6,186.2,59.6,186.5,59.6z M191.7,67.4c0.4-0.5,1.1-1.6,1-2.6
				c-0.1-1.3-0.8-2.6,2.6-4.3c0.4-0.2,0.2,0,0.2,0.1c-0.3,0.4-0.7,1.3-0.2,2.2c0.6,1.3,0.1,3.5-3.4,4.8
				C191.6,67.7,191.5,67.6,191.7,67.4z M182.5,61.3c0.7,0,2.1,0.1,2.9,0.7c1.2,0.8,2.1,1.9,5.7,0.4c0.2-0.1,0.2-0.1,0-0.2
				c-0.6,0-1.6-0.2-2.3-1c-0.9-1.1-3.3-1.9-6.4-0.2C182,61.3,182.2,61.3,182.5,61.3z M187.2,69.1c0.4-0.5,1.2-1.5,1.1-2.5
				c-0.1-1.3-0.6-2.5,2.8-4.2c0.4-0.2,0.2,0,0.1,0.1c-0.3,0.4-0.7,1.2-0.3,2.1c0.6,1.3-0.1,3.4-3.6,4.6
				C187.1,69.4,187,69.3,187.2,69.1z M178.5,62.9c0.7,0,2,0.1,2.9,0.7c1.1,0.8,2,1.9,5.5,0.6c0.2-0.1,0.2-0.1,0-0.1
				c-0.5,0-1.6-0.2-2.2-1c-0.8-1.1-3.2-2-6.3-0.4C178,62.8,178.2,62.8,178.5,62.9z M182.8,70.7c0.4-0.5,1.2-1.4,1.2-2.4
				c0-1.3-0.5-2.5,2.9-4c0.4-0.2,0.2,0,0.1,0.1c-0.3,0.4-0.8,1.2-0.4,2.1c0.5,1.2-0.2,3.3-3.7,4.3C182.7,70.9,182.6,70.9,182.8,70.7
				z M174.4,64.3c0.7,0,2,0.2,2.8,0.8c1.1,0.8,1.9,2,5.4,0.8c0.2-0.1,0.3-0.1,0-0.1c-0.5-0.1-1.6-0.3-2.1-1.1c-0.8-1.1-3-2-6.1-0.6
				C174,64.3,174.2,64.3,174.4,64.3z M178.3,72.1c0.4-0.4,1.3-1.4,1.3-2.3c0-1.2-0.4-2.5,3-3.8c0.4-0.1,0.2,0,0.1,0.1
				c-0.3,0.4-0.8,1.1-0.5,2c0.4,1.2-0.4,3.3-3.8,4.1C178.2,72.3,178.1,72.3,178.3,72.1z M170.2,65.8c0.7,0,1.9,0.2,2.7,0.8
				c1.1,0.8,1.8,1.9,5.3,0.7c0.2-0.1,0.2-0.1,0-0.1c-0.5,0-1.5-0.2-2.1-1.1c-0.7-1.1-3-2-6-0.6C169.8,65.7,170,65.7,170.2,65.8z
				 M174.1,73.3c0.4-0.4,1.2-1.3,1.2-2.2c0-1.2-0.4-2.4,3-3.7c0.3-0.1,0.2,0,0.1,0.1c-0.3,0.4-0.8,1.1-0.5,2c0.4,1.2-0.3,3.2-3.7,4
				C174,73.5,173.8,73.5,174.1,73.3z M166.3,66.9c0.7,0.1,1.9,0.3,2.6,0.9c1,0.8,1.6,1.9,5.1,0.9c0.2,0,0.3-0.1,0-0.1
				c-0.5-0.1-1.5-0.3-1.9-1.1c-0.6-1.1-2.7-2-5.8-0.8C165.9,66.8,166.1,66.8,166.3,66.9z M169.6,74.4c0.4-0.4,1.3-1.3,1.3-2.1
				c0.1-1.2-0.3-2.4,3.1-3.5c0.3-0.1,0.2,0,0.1,0.1c-0.3,0.3-0.9,1-0.6,1.9c0.4,1.2-0.5,3.1-3.8,3.8
				C169.5,74.6,169.3,74.6,169.6,74.4z M162.3,67.5c0.7,0.1,1.8,0.4,2.5,1.1c0.9,0.9,1.5,2,5,1.4c0.1,0,0.3-0.1,0-0.1
				c-0.5-0.1-1.4-0.4-1.9-1.3c-0.5-1.1-2.5-2.2-5.6-1.3C161.8,67.4,162.1,67.4,162.3,67.5z M164.8,75.1c0.5-0.3,1.4-1.1,1.5-2
				c0.2-1.1,0-2.3,3.4-3.1c0.3-0.1,0.2,0,0.1,0.1c-0.4,0.3-1,0.9-0.8,1.8c0.2,1.2-0.8,2.9-4.1,3.3C164.7,75.3,164.5,75.3,164.8,75.1
				z M158.3,68c0.6,0.2,1.7,0.5,2.3,1.2c0.8,0.9,1.3,2.1,4.8,1.6c0.1,0,0.3,0,0-0.1c-0.5-0.1-1.4-0.5-1.7-1.3
				c-0.4-1.1-2.3-2.3-5.4-1.6C157.9,67.9,158.1,67.9,158.3,68z M160.2,75.6c0.5-0.3,1.4-1,1.6-1.8c0.3-1.1,0.2-2.3,3.6-2.8
				c0.3,0,0.2,0,0.1,0.1c-0.4,0.3-1,0.8-0.9,1.7c0.1,1.2-1,2.8-4.3,3C160,75.7,159.9,75.7,160.2,75.6z M206.7-34.2
				c-0.4-0.9-1.1-2.7-0.6-4.2c0.6-2,1.9-3.8-2.2-7.2c-0.6-0.5-0.4-0.1-0.4,0.1c0.3,0.8,0.5,2.1-0.4,3.3c-1.3,1.8-1.3,5.4,3.2,8.2
				C206.7-33.8,206.9-33.7,206.7-34.2z M216.8-45.2c-1-0.2-3.1-0.5-4.7,0.2c-2,0.9-3.7,2.3-8-0.6c-0.8-0.5,0-0.4,0.2-0.4
				c0.9,0.1,2.2,0,3.3-1c1.7-1.5,5.7-2.1,9.5,1.7C217.4-45.1,217-45.2,216.8-45.2z M221.9-40.5c-1-0.3-3-0.7-4.6-0.1
				c-2,0.8-3.8,2.1-7.8-1.1c-0.7-0.6,0-0.4,0.2-0.4c0.9,0.1,2.2,0.1,3.3-0.8c1.8-1.4,5.7-1.7,9.2,2.2
				C222.4-40.3,222-40.4,221.9-40.5z M211.1-30.2c-0.3-0.9-0.9-2.7-0.3-4.2c0.8-1.9,2.1-3.6-1.6-7.3c-0.5-0.5-0.4-0.2-0.4,0.1
				c0.2,0.8,0.3,2.1-0.6,3.3c-1.4,1.7-1.6,5.2,2.6,8.2C211.1-29.8,211.3-29.8,211.1-30.2z"/>
			<path class="st0" d="M90.9-7.2c0,0-10.6-0.8-11.4-0.8c-0.8,0-1.7-1.3-2.1-1.1c-0.4,0.2-1.4,1.3-1.4,1.3s-2.8,1.1-3.3,1.1
				c-0.5,0.1-1.2-0.2-1.2-0.2S70.6-7.3,70.3-7c-0.3,0.3-0.2,2.3-0.5,2.6c-0.3,0.3-0.7,1.4-0.7,1.7c0,0.2,0.4,1.8,0.2,1.8
				c-0.1,0-0.5,0.1-0.5,0.1c0,0,0.1,0.3,0,0.5C68.8,0,67.6,1,67.3,1.1c-0.3,0.2,0,0.6,0,0.9c0,0.3,0.2,1.1,0.5,1.4
				c0.3,0.3,0,0.1,0.2,0.5c0.2,0.3,0.7,1.2,0.7,2.3c0,0,0,0.5,0,0.6c0,0.1,0.3,0.8,0.5,0.9c0.1,0.1,1.5,1.1,1.6,1.4
				c0.1,0.3,0,0.6,0.2,0.7c0.2,0,0.2,0.1,0.5,0.3c0.3,0.2,0.3,1.8,0.5,2c0.1,0.2,1,1.1,1.2,1.3c0.1,0.2,0,1.1,0.2,1.4
				c0.3,0.3,0.9,0.9,1.2,1.2c0.2,0.3,2.9,1.9,4,2.8c1.1,0.8,1.7,1.4,1.9,1.7c0.1,0.3-0.2,0.5,0.2,0.9c0.5,0.3,0.3,0.4,0.5,0.8
				c0.1,0.4-0.1,0.9-0.2,1c-0.1,0.2-0.1,0.4-0.2,0.6c-0.1,0.2-0.2,0-0.2,0.3c0,0.3,0,1.4,0,1.4s0.3,0.3,0.5,0.5
				c0.1,0.2,0.3,0.4,0.5,0.6c0.1,0.2-0.1,1,0,1.2c0.1,0.1,1.2,0.7,1.2,0.8s0.2,0.5,0.2,0.6c0,0.1,0.7,0.2,0.7,0.3
				c0,0.1,0.2,0.3,0.5,0.5c0.2,0.2,0.7,0.3,0.9,0.5c0.2,0.2,1.3,0.8,1.4,1.1c0.1,0.3-0.3,0.4,0,0.5c0.3,0.1,0.9,0.3,0.9,0.5
				c0,0.2,0.1,2,0.2,2.3c0.1,0.4,0.6,0.5,0.7,0.6c0.1,0,0.3-0.3,0.7-0.6c0.4-0.3,0.5-0.3,0.7-0.3c0.2,0,0.5,0.1,0.7,0
				c0.2-0.1,1.6,0,2.1,0c0.5,0,1.2,0.4,1.2,0.4s1.2-0.4,1.6-0.3c0.5,0.1,2.1,0.9,2.3,1.2c0.3,0.3,0.5,0.5,0.5,0.5s0.6,0,0.7,0
				c0.1,0,2.2,1.4,2.6,1.6c0.4,0.3,0.3,0.3,0.5,0.5c0.1,0.2,0.2,0.3,0.7,0.4c0.5,0.1,1.3,0,1.4,0c0.1,0,1.6,0.6,1.9,0.9
				c0.2,0.3,0.4,0.3,0.7,0.3c0.3,0,3.4-0.1,3.5,0c0.1,0,0.6,0,0.7,0c0.1,0,1.3,0.1,1.4,0.3c0.1,0.2,0.2,0.3,0.5,0.3s0.3,0.2,0.5,0.3
				c0.1,0.1,0.8,0.2,1.2,0.1c0.4-0.1,0.5-0.1,0.7,0c0.2,0.1,1,0.3,1.4,0.2c0.4-0.1,0.1-0.1,0.9-0.2c0.8-0.1,1.3,0.5,1.4,0.5
				c0.1,0,0.2,0,0.5,0.1c0.2,0.1,0.5,0.7,0.9,0.8c0.5,0,0.8,0,0.9-0.1c0.1-0.1,0.1-0.2,0.2-0.4c0.1-0.1,0.2-0.4,0.5-0.4
				c0.2,0,0.5,0.1,0.5-0.1c0-0.2-0.1-1,0-1.5c0.1-0.5,1-1,1.2-1.2c0.1-0.2,0-1.1,0-1.3c0-0.2-1-1.1-1.2-1.3
				c-0.1-0.2-0.5-1.2-0.5-1.6c0-0.4,0.8-0.6,1.4-0.8c0.6-0.2,1.3-0.2,1.4-0.4c0.1-0.2,0.2-0.3,0.5-0.4c0.3-0.1,1-0.2,1.4-0.3
				c0.4-0.1,0.8-0.5,1.2-0.5c0.4-0.1,0.7,0.2,0.9,0.3c0.2,0.1,1.6,0.2,2.1,0.2c0.5,0,0.8-0.4,1.4-0.6c0.6-0.2,0.6-0.1,0.9-0.3
				c0.4-0.1,0.2-0.4,0.5-0.7c0.2-0.2,0.7-0.5,0.9-0.9c0.2-0.4,0.7-0.6,1.2-0.8c0.5-0.1,1.5,0.4,2.1,0.1c0.6-0.2,1.3-0.7,1.6-0.7
				c0.4,0,0.7,0.1,1.2-0.1c0.5-0.2,1.1-0.7,1.9-0.7c0.8-0.1,1.5,0,1.6,0.3c0.1,0.3,0.7,1.2,0.7,1.7c0,0.5,0.1,0.9-0.2,1.1
				c-0.4,0.2-0.2,0.9-0.2,1.2c0,0.4,1.2,0.9,1.2,1c0,0.1,0.8,0.6,0.9,0.7c0.1,0.1,0,0.1,0.5,0.1c0.5,0.1,0.6,0,0.9,0.1
				c0.4,0.1,0.9,0.1,1.2,0c0.2,0,0.2-0.2,0.5-0.3c0.2-0.1,0.3-0.3,0.5-0.4c0.1-0.2,0.7-0.6,0.9-0.6c0.2,0,0.7-0.2,0.9-0.2
				c0.2,0,0.2,0.2,0.7-0.1c0.5-0.3,0.8-0.3,0.9-0.4c0.1-0.1,0.1-0.2,0.2-0.3c0.1-0.1,2.9-0.1,3-0.1c0.1,0,1.9-0.1,2.1-0.1
				c0.2,0,0.6-0.2,0.7-0.4c0.1-0.3,0.5-0.2,0.7-0.2c0.2,0,0.3,0.2,0.5,0.3c0.1,0.1,0.3,0.2,0.5,0.4c0.1,0.1,0.2,0.2,0.2,0.3
				c0,0.1,0.5,0.4,0.7,0.3c0.2,0,1.3,0.6,1.9,0.6c0.6,0,0.7-0.1,1.4-0.2c0.7-0.1,2.1-0.2,2.3-0.1c0.2,0.1,0.9,0.7,1.2,0.9
				c0.2,0.2-0.1,0.3,0.2,0.6c0.4,0.3,0.5,0.2,0.5,0.5c0,0.3,0.5,2.5,0.5,2.8c0,0.2,0.2,0.4,0.2,0.6c0,0.2,0.2,1.4,0.2,1.6
				c0,0.2,0.5,0.6,0.5,1.2c0,0.6,0.1,1.8,0,2.1c-0.1,0.2-0.3,0.1-0.5,0.5c-0.1,0.3,0.1,1.2,0.2,1.4c0.1,0.2,0.1,0.2,0.2,0.6
				c0.1,0.3,0,1.2,0.2,1.2c0.2,0.1,0.8-0.1,0.9-0.2c0.1-0.1,1.4,0.4,1.4,0.4c0,0.1,0.1,0.4,0.7,0.2c0.6-0.1,0.7-0.2,1.9,0.2
				c1.2,0.4,0.9,0.5,1.4,0.5c0.5,0,0.8,0.3,0.9,0.4c0.1,0.1,0,0.3,0.2,0.3s0.8-0.1,0.9,0.2c0.1,0.2,0.2,0.4,0.5,0.4
				c0.2,0,0.9,0,1.4,0.1c0.5,0.1,0.5,0.4,0.9,0.3c0.5-0.1,1.1-0.4,1.4-0.4c0.4,0,0.6,0.1,0.7-0.2c0.1-0.3,0.1-0.9,0.5-1.1
				c0.4-0.2,1.2-1.3,1.4-1.6c0.2-0.3,0.6-1.3,0.2-1.9c-0.4-0.6-0.5-0.7-0.5-1.6c0-0.9,0.2-1.2,0.5-1.3c0.2,0,0.5,0.1,0.7-0.3
				c0.2-0.5,0.2-0.8,0.5-1c0.2-0.2,0.7-1,0.7-1s0.6-0.1,0.7-0.2c0.1-0.2,0.7-0.4,0.7-0.4s0.5-0.2,0.5-0.4c0-0.2,0-1.1,0-1.7
				c0-0.5,0.7-1.2,0.9-1.5c0.2-0.3,0.5-0.1,0.5-0.8c0-0.7-0.1-0.5-0.2-0.9c-0.1-0.4-0.1-0.9,0-1c0.1-0.2,0.2-0.5,0.2-0.8
				c0-0.3,0.1-0.5,0.2-0.5c0.1-0.1,0.1,0,0.2-0.5c0.1-0.5,1.7-2.6,1.9-2.9c0.1-0.3,0.1-0.5,0.5-0.6c0.4-0.1,0.8-0.2,0.9-0.7
				c0.1-0.5-0.2-0.6,0-1.2c0.2-0.7,0.8-0.6,0.9-1.1c0.5-2.1,0.8,1,1.2,0.5c0.2-0.3,0-1,0.2-1.8s0.3-0.9,0.5-1
				c0.1-0.1,0.8-0.4,1.4-0.4c0.6,0,0.7,0,1.2,0c0.5,0,1.2,0,1.4,0.1c0.2,0.1,1,0.7,1.2,0.9c0.1,0.2,0.1,0.5,0.5,0.8
				c0.4,0.4,0.5,0.6,0.7,0.9s0.1,0.5,0.2,0.8c0.1,0.3,0.6,0.5,0.7,0.6c0.1,0.2,0.5,0.5,0.5,0.3c0-0.2,0.2-0.9,0.5-1.4
				c0.3-0.5,0.1-0.9,0.2-1.1c0.1-0.2,1.3-1.4,1.4-1.5c0.1,0,0.5-0.1,0.9-0.1s1.4,0.2,1.6,0c0.2-0.2,0.2-0.5,0.5-0.7
				c0.2-0.3,0.9-0.8,1.2-0.9c0.2-0.1,0.4-1.2,0.2-1.7c-0.1-0.5,0-0.5-0.2-0.7c-0.2-0.3-0.2-0.3-0.5-0.5c-0.2-0.2-0.3,0-0.5-0.2
				c-0.1-0.2,0.2-0.3-1.6-1.5c-1.5-1,0-0.2,0-0.8c0-0.6,0.2-1.4,0-1.8c-0.2-0.4-0.7-0.6-0.9-0.8c-0.2-0.1-0.7-1.1-0.7-1.6
				c0-0.4-0.4-0.5-0.9-0.5c-0.6,0-0.2,0-0.7-0.3c-0.5-0.4-0.8-1-0.9-1.2c-0.1-0.2-1-0.5-1.4-0.7c-0.4-0.3-0.6-0.7-0.9-0.9
				c-0.4-0.1-0.7-0.3-0.9-0.4c-0.2,0-0.1,0.1-0.5-0.8c-0.4-0.9-0.7-1.4-0.9-1.5c-0.2-0.1-1.2-0.5-1.4-0.7c-0.2-0.3,0.1-0.2-0.2-0.4
				c-0.4-0.1-0.1-0.2-1.6-0.7c-1.5-0.5-2.3-1.6-3-1.7c-0.7-0.1-0.2-0.7-0.9-0.9c-0.7-0.2-0.6-0.2-1.2-0.4c-0.6-0.3-2.2-1.1-2.6-1.5
				c-0.4-0.3-0.7-0.5-0.9-0.7c-0.2-0.3-0.9-0.8-1.2-0.1C187-2.6,187-2.5,186.8-2c-0.2,0.5-0.3,1.9-0.7,2.6c-0.4,0.6-0.2,1.8-0.5,2.3
				c-0.2,0.5-0.7,1.5-0.9,1.8c-0.2,0.3-2.9,5.7-3.7,6.2c-0.8,0.5-1.6,0.9-2.1,1.7c-0.5,0.8-0.6,0.3-0.7,1.1
				c-0.1,0.9,0.2,2.3-0.2,2.9c-0.5,0.6-1.6,2.3-2.1,2.5c-0.5,0.2-0.6-0.2-0.9,0.5c-0.4,0.8-0.1,0.8-0.7,1.8c-0.6,0.9-2.7,4.4-3,4.7
				c-0.4,0.3-0.8,0.9-0.9,1c-0.1,0.1-0.1,0,0,0.3c0.1,0.3,0.2,1.1,0,1.5c-0.2,0.4-0.6,0.9-0.7,0.7c-0.1-0.2-0.3-0.5-0.7-1.5
				c-0.4-1-0.2-1.5-0.5-1.4c-0.2,0.1-0.7,0.3-0.9,0.5c-0.2,0.2-0.1,0.2-0.2,0.7c-0.1,0.5-1,1.4-1.2,1.6c-0.1,0.2-0.5,0.5-0.5,0.3
				c0-0.2-0.7-0.3-0.5-0.9c0.2-0.7,1.6-2.9,1.6-2.9s1.9-4.1,2.1-4.8c0.2-0.7,1.3-2.4,1.6-2.8c0.4-0.4,0.6-0.4,0.7-0.6
				c0.1-0.2,0.7-2.3,0.7-2.4c0-0.1,1.6-1,1.6-1.3c0-0.3,0-1,0.2-1c2.1-0.8-0.6-4.2,3.3-7.1c0.4-0.3,1-1.1,1.2-1.2
				c0.1-0.2-0.1-2.8,1.4-4s2.6-1.5,2.8-1.5c0.2,0,2.1-1.1,2.3-1.3c0.2-0.2,0.7-0.6,0.9-1.3c0.2-0.7,0.7-0.9,0.7-1.5
				c0-0.6,0.2-1.2,0.5-1.8c0.2-0.5,1.3-2,2.1-2c0.8,0,2.1,1,2.1,1.1c0,0.1,1,0,1.4,0c0.4,0,0.3,0.5,0.9,0.7c0.6,0.2,3.5,1,3.7,1.1
				c0.2,0.1,1.2,0.4,1.4,0.7c1.7,2.3,1.3-2.3,1.2-3c-0.1-0.7-0.7-1.6-0.7-1.7c0-0.1-0.6-1.1-0.9-1.9c-0.4-0.7-0.5-1.1-0.5-1.7
				c0-0.6-1.3-4.2-1.6-4.9c-0.4-0.7-1.2-1.6-1.6-2.6c-0.5-0.9-0.7-1.8-1.6-2.3c-0.9-0.5-2.3-1.6-2.6-1.9c-0.2-0.3-0.9-1.3-1.6-2.6
				c-0.7-1.4-1.4-2.3-1.6-2.5c-0.2-0.2-0.3-1.1-1.2,0c-0.8,1.1-0.7,3.3-0.7,3.7c0,0.4,0,0.6-0.2,1c-0.2,0.4-0.6,1.4-0.2,2.1
				c0.4,0.6,2.1,2.1,2.6,2.5c0.5,0.4,1.4,1.2,2.1,1.7c0.7,0.5,2,0.7,2.1,0.9c0.1,0.2,2.1,2.8,2.8,4c0.7,1.2,0.9,1.2,0.7,2
				c-0.2,0.9,0.1,0.7-0.5,0.7c-0.6,0-2.8-0.2-3.3,0.2c-0.5,0.3-1.4,0.7-1.9,0.6c-0.5-0.1-0.7-0.3-0.9,0.1c-0.2,0.3,0.1,0.5-0.5,0.8
				c-0.6,0.3-0.9,0.8-1.4,1.4c-0.5,0.6-0.4,1.4-1,1.7c-0.6,0.3-0.6,0.4-0.9,0.5c-0.4,0.1-0.3-0.1-0.5,0.5c-0.1,0.5-0.1,0.4-0.2,0.8
				c-0.1,0.4,0,1,0,1.3s0,0.4-0.3,0.8c-0.4,0.4,0.2,0.7-0.7,0.7c-0.9,0-1,0.7-1.8,0.5c-4.6-1.3-5.2,8.5-5.8,5.7
				c-0.1-0.5-0.1-1-0.7-1.7c-0.6-0.7-0.7-0.8-0.7-2.4s0-4,0-4.3c0-0.3-0.8-1.6-0.9-2c-0.1-0.3-0.9-3.4-0.9-3.4s-0.7-0.8-0.7-1.7
				c0-0.9,0.4-2,0-2.3c-0.4-0.4-0.5-0.8-0.5-1.6c0-0.8,0.3-0.5,0.9-1.4c0.6-0.9,3.3-3.2,3.3-3.2s0.6-0.2-0.7-0.5
				c-1.3-0.3-1.9-1.3-2.6-1.8c-0.7-0.5-2-1.1-2.6-1.3c-0.6-0.2-1.4-0.4-1.9-0.2c-0.5,0.2-1.2,0.9-1.6,1.2c-0.5,0.3-0.6,0.8-1.2,0.3
				c-0.6-0.5-1.3-0.6-1.6-0.5c-0.4,0.1-1.9,2.2-3.3,3.4c-1.4,1.2-5,3.6-5.1,3.9c-0.1,0.3-0.1,1.9-0.5,2.5c-0.4,0.6-1.2,1.5-1.2,1.5
				s-0.2,1.5-0.9,2.6c-0.7,1-0.7,1-0.7,1.3c0,0.3,0.5,2.2,0.5,2.7s0,1.9,0.2,2.3c0.2,0.4,1.4,0.4,1.4,1c0,0.7-0.4,2-0.2,2.6
				c0.1,0.5,3.3,3.9,0.2,5c-3,1-13.5,4.2-20.8,6.3c0,0-0.7-0.8-1.4-1.1c-0.7-0.3-2.2,1.1-2.8,1.1c-0.6,0-14.6-9.9-14.9-10.1
				c-0.4-0.2-1.9-0.5-1.9-0.5s-0.5,1.1-0.9,1.4C110,3.6,91,12.4,90.9,12.6c-0.1,0.3-2.8-0.8-2.8-1.3C88.1,10.8,90.9-7.2,90.9-7.2"/>
			<path class="st0" d="M99.6-49.1l8.9,3.3c-0.4-2.1-0.9-4.1-1.3-6.2C104.6-51.1,102.1-50.2,99.6-49.1 M93.9-50.7
				c0.5,0.2,0.3,0.6,0.1,1l-5.7,13l20.1-7.8l-10.1-4.1c-0.2-0.1-0.3-0.3-0.3-0.5v-14c-6,2.1-12.1,3.8-18.3,5.4L93.9-50.7z
				 M170.7-45.7l8.9-3.3c-2.5-1.1-5-2.1-7.6-2.9C171.6-49.9,171.1-47.8,170.7-45.7z M180.8-48.7l-10.1,4.1l20.1,7.8l-5.7-13l0,0
				c-0.1-0.3-0.4-0.8,0.1-1l14.1-7.1c-6.1-1.6-12.3-3.3-18.3-5.4v14C181.1-48.9,181-48.8,180.8-48.7z M99.1-70v20
				c21.8-9.9,59.1-9.9,80.9,0v-20C162.1-78.6,117.1-78.6,99.1-70z M78.1-57.5c-0.5-0.3-0.5-0.9,0.1-1c6.6-1.2,13.6-3.5,20-5.7V-70h0
				l0-0.3c0-0.2,0.1-0.4,0.3-0.5c18-8.9,64.4-8.9,82.4,0c0.3,0.2,0.3,0.5,0.3,0.8h0v5.7c6.1,2.2,13.6,4.6,20,5.7
				c0.5,0.1,0.6,0.8,0.1,1l-0.1,0L186.2-50l6.2,14l0,0c0.2,0.4-0.2,0.9-0.7,0.7l0,0l-21.3-8.2c-0.4-0.1-0.7-0.5-0.8-1
				c-0.1-0.5,0.1-1,0.1-1.3c0.5-2.1,0.9-4.2,1.3-6.4c-18.9-5.5-43.9-5.5-62.9,0c0.4,2.1,0.9,4.3,1.3,6.4c0.1,0.4,0.3,0.9,0.1,1.4
				c-0.1,0.4-0.5,0.7-0.8,0.9l-21.3,8.2l0,0c-0.4,0.2-0.9-0.3-0.7-0.7l0,0L93-50L78.1-57.5z"/>
			<path class="st0" d="M134.3-67.6c-0.2,0.2-0.2,0.4-0.5,0.8c-0.3,0.4-0.9,0.8-1.5,0.7c-0.1,0-0.6-0.1-0.7-0.1
				c-0.2-0.1-0.5-0.3-0.7-0.4c-0.3-0.2-0.4-0.5-0.5-0.8c-0.1-0.3-0.2-0.7,0.1-0.9c0.1-0.1,0.1-0.1,0.2-0.2c0.8-0.6,2.6-0.2,2.9-0.3
				c0.1-0.1,0.1-0.6,0.1-0.7c-0.1-0.1-0.4-0.3-0.6-0.4c-0.4-0.2-0.9-0.5-1.3-0.6c-0.3-0.1-0.5-0.2-0.8-0.3c-0.2-0.1-0.5-0.2-0.8-0.2
				c-1.1-0.3-2.1-0.6-3.1-1c-0.8-0.3-3-1-3.8-1.1c-0.2,0-0.7-0.2-0.6-0.3c0,0,0,0,0,0c0,0,0,0,0,0c0.3,0,3,0.3,3.9,0.4
				c1.9,0,6.6,2,7.4,3.1c0.2,0.3,0.3,0.6,0.5,0.9c0.1,0.1,0.1,0.2,0.1,0.3c0.5,0.1,0.8,0.2,1.1,0.3c-0.2-0.4-0.3-0.5-0.4-0.7
				c-0.2-0.5-0.2-1,0.1-1.4c0.5-0.8,0.8-1,1.9-1.3c2.9-0.9,10.4,0.7,13,1.8c1.3,0.4,1.3,0.5,1.8,1.4c0.6,1.4-1,3.3-2.8,3.2
				c-1.1,0-1.9-0.9-2.2-1.6c-0.5-1.5,2.9-0.9,4.1-1.3c0.2-0.1,0.3-0.1,0.3-0.3c0.1-0.2,0.1-0.2-0.2-0.3c-0.1,0-0.3-0.1-0.4-0.2
				c-3-1-15.7-4.4-15.1,0.8c0.1,0.1,0.1,0,0.2,0.1c0.9,0.5,1.2,1.5,1.2,2.3c0,0.4-0.1,1.2-0.2,1.6c0,0.3-0.6,2.7-0.5,3.1
				c0.2,0,0.3-0.3,0.4-0.3c0.1-0.1,0.2-0.2,0.4-0.4c0.2,0,0.1,0.2,0.1,0.4c-0.1,0.3-0.7,1.6-0.9,2c-0.1,0.2-0.2,0.4-0.3,0.6
				c0,0.1,0,0.1-0.1,0.2c-0.1,0-0.1-0.1-0.2-0.2c-0.1-0.1-0.5-0.5-0.6-0.7c-0.3-0.4,0.1,0,0.2-1.1c0-0.3,0.1-0.7,0.1-1
				c0.1-0.8,0.3-1.5,0.4-2.3c0.2-0.9,0.4-1.7,0.5-2.6c0-0.3-0.1-0.3-0.4-0.4c-0.3-0.1-0.4-0.2-0.7-0.2
				C135.1-67.5,134.5-67.6,134.3-67.6 M148.2-66.7c0.1,0.2,0.6,0.4,1.1,0.3c0.4-0.1,0.8-0.3,1-0.4c-0.3,0-0.8,0-1.1,0
				C148.6-66.9,148.4-66.8,148.2-66.7z M131.3-67.4c0.1,0.1,0.2,0.2,0.3,0.2c0.5,0.1,0.9-0.2,1.1-0.4c0.1,0,0.1-0.1,0.1-0.1
				c-0.3,0-0.6,0-0.9,0.1c-0.1,0-0.2,0.1-0.4,0.1C131.5-67.5,131.4-67.4,131.3-67.4z M158.3-67.2c-0.2,0-0.6,0.4-0.8,0.6
				c-0.1,0.2-0.3,0.4-0.3,0.6c-0.1,0.2,0,0.4-0.3,0.2c-0.9-0.4-1.8-0.6-2.7-1c-0.2-0.1-0.4-0.9-0.4-1.1c0-0.1-0.1-0.1,0-0.2
				c0.1-0.1,0.2-0.2,0.2-0.4c0.1-0.2,0.6-1.1,0.3-1.3c-0.1-0.1-0.3-0.2-0.4-0.3c-0.7-0.4-2.5-1-3.4-1.2c-2.6-0.6-5.1-1.1-7.7-1.6
				c-0.2-0.1-0.5,0-0.4-0.3c0.1-0.1,5.7,0.3,6.1,0.3c1.6,0.3,4,1.1,5.3,1.9c1.2,0.7,1.4,2,1.1,3c-0.2,0.5-0.2,0.3,0.3,0.5
				c0.2,0.1,1.2,0.4,1.4,0.5c0.1-0.1,0.1-0.1,0.1-0.2c0.2-0.5,0.4-0.7,0.8-1c-0.1-0.2-0.3-0.4-0.3-0.6c-0.1-0.3-0.1-0.3-0.2-0.7
				c-0.2-1,0.2-2.3,1.5-2.7c1.2-0.4,2.2-0.4,3.5-0.2c1.6,0.3,3,0.9,3.9,2c0.1,0.1,0.2,0.2,0.3,0.2c1.2-0.4,1.5-0.7,2.9-0.8
				c0.7-0.1,0.9,0.2,1.1,0.6c0.3,0.4,0.4,0.6,0.1,1.1c-0.4,0.6-1.3,1.5-2.2,1.2c-0.8-0.3-1.2-0.7-1.7-1.2c-0.5-0.5-0.9-0.9-1.7-1.2
				c-0.4-0.1-0.6-0.3-1-0.4c-0.1,0-0.1,0-0.1-0.1c-1.6-0.4-2.7-0.6-4.2-0.2c-0.4,0.1-0.6,0.2-0.9,0.4c-0.5,0.3-0.6,0.7-0.8,1.2
				c-0.1,0.2-0.1,0.4,0,0.6c0,0.1,0,0.2,0.1,0.3c0,0.1,0.1,0.2,0.1,0.3c2-0.8,7.4-0.6,8.3,1.4c0.3,0.6,0.6,0.9,0.2,1.6
				c-0.4,0.6-1.1,1.1-2,1.3c-0.9,0.2-1.9,0.2-2.7-0.1C160.7-64.6,158.3-66.6,158.3-67.2z M165.5-66.9c-1.9-0.8-4.4-1.2-6.5-0.6
				c-0.6,0.2-0.5,0.1-0.2,0.4c0.2,0.3,0.8,0.8,1.1,1.1c0.6,0.5,1.5,1.1,2.5,1c0.8,0,1.5-0.2,2-0.6C164.9-65.8,165.5-66.4,165.5-66.9
				z M167.2-69.3c0.1,0.1,0.1,0.1,0.3,0.1c0.6,0.3,1.4-0.5,1.5-0.6c-0.3,0-0.7,0.1-0.9,0.2C167.8-69.4,167.5-69.4,167.2-69.3z
				 M140.4-69.1c0-0.5,0-0.6,0-1.1c0-0.1,0-0.1-0.1-0.2c0-0.1,0-0.1,0.1-0.1c0.2,0,0.3,0.3,0.4,0.4c0.3,0.8,0.4,0.7,0.4,1.7
				c0.3,2.7-1,5.2-0.9,7.4c0.1-0.1,0.3-0.2,0.4-0.3c0.1-0.1,0.3-0.3,0.4-0.3c0.3,0.1,0.1,0.3,0,0.4c-0.1,0.2-0.1,0.3-0.2,0.4
				c-0.2,0.3-0.3,0.5-0.5,0.8c-0.1,0.3-0.3,0.6-0.4,0.8c-0.1,0.1-0.2,0.3-0.2,0.4c-0.1,0.1-0.1,0.3-0.2,0.4
				c-0.1-0.2-0.3-0.3-0.4-0.5c-0.8-0.9-0.4-0.6-0.3-1.1c0.2-0.6,0.4-1.5,0.5-2c0.3-2.1,0.9-4.2,1-6.2
				C140.4-68.7,140.4-68.9,140.4-69.1z M157-63.9c0.4,0.2,0.9,0.3,1.3,0.5c0.5,0.2,0.8,0.3,1.3,0.4c0.4,0.1,0.9,0.3,1.4,0.4
				c0.1,0,0.3,0.1,0.4,0.1c0.1,0,0.3,0.1,0.4,0.1c0.6,0.1,1.3,0.4,1.8,0.4c0.1,0,0.1,0,0.2,0c0.4,0.1,0.5,0.1,0.8,0.2
				c0.1,0.1,0.6,0.1,0.8,0.2c0.3,0.1,1,0.2,1.3,0.2c0.2,0,1.6,0.3,1.6,0.4c0.1,0,0.1,0.2,0.2,0.2c0.1,0.1,0.2,0.2,0.1,0.3
				c-0.1,0-0.3,0-0.4-0.1c-0.8-0.2-1.6-0.3-2.3-0.5c-0.9-0.2-1.4-0.3-2.3-0.5c-0.1,0-0.3,0-0.4-0.1c-0.3-0.1-0.9-0.2-1.2-0.3
				c-0.5-0.1-1-0.3-1.6-0.4c-0.4-0.1-0.9-0.3-1.4-0.4c-0.4-0.2-0.9-0.3-1.3-0.5c-0.5-0.2-0.5-0.1-0.8-0.5
				C156.8-63.8,156.8-63.8,157-63.9z M125.7-63.8c-0.3-0.3-2-0.8-2.5-1c-0.2-0.1-0.8-0.2-0.7-0.4c0,0,1.8,0.3,2,0.3
				c0.9,0.2,1.8,0.6,2.3,1.2c0.2,0.2,0.5,0.5,0.6,0.7c-0.4,0.2-3.4,0.3-3.8,0c-0.1-0.1-0.5-0.7-0.6-0.9c-0.1-0.1-0.1-0.3,0.1-0.2
				C123.6-63.7,124.9-63.8,125.7-63.8z M158-59.9c0.1,0,0.3,0.1,0.6,0.1c0.6,0.1,1.5,0.1,2.2,0c-0.1-0.1-1-0.5-1.2-0.5
				c-0.3-0.1-0.6-0.2-0.9-0.3c-0.3-0.1-0.6-0.2-0.9-0.3c-0.1,0-0.4-0.1-0.3-0.2c0.1-0.1,2.4,0.3,2.8,0.4c0.4,0.2,1.9,1.4,1.8,1.8
				c-0.5,0.2-2.9,0.2-3.3,0c-0.2,0-0.3-0.3-0.5-0.5c-0.1-0.1-0.1-0.1-0.1-0.2C158.1-59.7,158-59.8,158-59.9z M109.9-59
				c-0.2-0.1-0.5-0.5-0.7-0.7c-0.1-0.1-0.2-0.2-0.2-0.3c0.3-0.1,1-0.5,1.3-0.6c0.5-0.3,0.4-0.2,1,0.3c0.2,0.2,0.3,0.3,0.5,0.5
				c0.2-0.1,1.6-0.8,1.7-0.9c0.2,0.1,0.6,0.6,0.8,0.7c0.1,0.1,0.2,0.2,0.2,0.2c-0.5,0.3-1,0.5-1.5,0.8c-0.1,0-0.2,0.1-0.3,0.1
				c-0.1,0-0.2-0.2-0.2-0.2c-0.1-0.1,0,0-0.1-0.1c-0.2-0.2-0.3-0.4-0.5-0.5c-0.1-0.1-0.2,0-0.3,0c-0.3,0.1-0.7,0.3-1,0.5
				C110.3-59.1,110.1-59,109.9-59z M125.6-58.7c-0.6-0.1-1.3-0.2-1.7-0.3c-0.7-0.1-1.3-0.3-2-0.4c-0.6-0.1-1.1-0.3-1.6-0.4
				c-1.1-0.3-2.6-0.7-3.7-1.1c-0.1,0-0.2-0.1-0.3-0.1c-0.2,0-0.1-0.1-0.2-0.2c-0.1-0.1-0.3-0.5,0-0.4c0.1,0,0.2,0.1,0.3,0.1
				c0.8,0.3,2.3,0.7,3.1,1c0.6,0.2,2.3,0.6,2.9,0.7c0.1,0,0.2,0,0.3,0.1c0.1,0,0.2,0.1,0.3,0.1c0.4,0.1,0.8,0.2,1.3,0.3
				c0.2,0.1,0.5,0.1,0.7,0.1c0.4,0.1,0.3,0,0.5,0.2C125.7-58.9,126-58.6,125.6-58.7z M146.9-60.8c-0.1-0.2-0.4-0.4-0.6-0.6
				c-0.6-0.6-2-1.3-2.8-1.8c-0.5-0.4-2-1.1-2.3-1.5c0,0,3.3,1.4,3.4,1.5c0.6,0.4,1.3,0.7,1.8,1.2c0.4,0.4,0.5,0.6,0.9,0.9
				c0.3,0,0.5-0.5,0.7,0c0.2,0.5-0.2,0.4-0.3,0.6c0,0.1,0.4,0.7,0.1,1.1c-0.1,0.2-0.4,0.4-0.7,0.3c-0.1,0-0.1-0.1-0.2-0.1
				c-0.4-0.2-0.5-0.3-0.7-0.6c-0.2-0.4-0.4-0.7,0.3-0.9C146.5-60.7,146.8-60.7,146.9-60.8z M146.5-59.9c0.1,0.1,0.1,0.2,0.3,0.2
				c0.1,0.1,0.2,0.1,0.4,0.1c0.3-0.1,0.2-0.4,0.1-0.6C147.1-60.2,146.6-60,146.5-59.9z M152.8-60.1c0.1,0.1,0.1,0.1,0.2,0.2
				c0.2-0.1,0.7-0.6,0.8-0.8c0.1-0.2,0.2-0.3,0.3-0.5c0.1-0.1,0.1-0.5,0.2-0.6c0.2,0,0.3,0.5,0.3,0.7c0.1,0.3,0.1,0.4,0.3,0.7
				c0.1,0.2,0.3,0.6,0.5,0.6c0.2,0,0.3-0.1,0.4-0.2c0.2-0.1,0.2-0.2,0.4-0.2c0.1,0.1,0.2,0.2,0.2,0.4c0.1,0.2-0.1,0.2-0.2,0.4
				c-0.1,0.1-0.3,0.2-0.5,0.2c-0.5,0.1-0.8-0.6-1-0.9c-0.1-0.3-0.3-0.7-0.3-0.8c-0.1,0.1-0.1,0.2-0.1,0.3c-0.1,0.3-0.4,0.6-0.6,0.8
				c-0.2,0.2-1,0.7-1.3,0.7c-0.1-0.1-0.1-0.2-0.1-0.3c0-0.1-0.2-0.3-0.1-0.3C152.1-59.9,152.5-60.1,152.8-60.1z M126.9-65.1
				c0.2,0,0.1,0.1,0.4,0.2c0.2,0,0.2,0.1,0.5,0.2c0.1,0,0.2,0.1,0.3,0.1c0.1,0,0.1,0,0.3,0.1c0.5,0.1,1,0.3,1.5,0.4
				c0.2,0,0.4,0.1,0.6,0.1c0.6,0.2,1.2,0.3,1.8,0.5c0.3,0.1,0.5,0.1,0.8,0.2c0.4,0.1,0.7,0.2,1,0.3c0.4,0.1,0.3,0.1,0.5,0.4
				c0.1,0.1,0.1,0.1,0,0.2c-0.1,0-0.9-0.2-1-0.3c-0.3-0.1-0.7-0.2-1.1-0.3c-0.4-0.1-0.7-0.2-1.1-0.3c-0.2-0.1-0.3-0.1-0.5-0.1
				c-0.5-0.1-1-0.3-1.6-0.4c-0.5-0.1-1.6-0.5-1.9-0.6c-0.3-0.1-0.4-0.1-0.4-0.2C127-64.9,126.8-65,126.9-65.1z M123.4-61.7
				c-0.1,0.1-0.1,0.6-0.8,1.2c-0.1,0-0.4,0.3-0.5,0.2c0,0-0.1-0.6-0.1-0.6c0-0.1,0.1-0.2,0.2-0.2c0.1-0.1,0.2-0.1,0.4-0.1
				c0.2-0.2,0.4-0.4,0.5-0.6c0.1-0.1,0.1-0.2,0.2-0.4c0.1-0.1,0-0.3,0.2-0.3c0.1,0.1,0.2,0.5,0.2,0.6c0.1,0.2,0.2,0.4,0.3,0.6
				c0.2,0.3,0.2,0.7,0.8,0.4c0.1,0,0.2-0.2,0.3-0.2c0.1,0.1,0.1,0.2,0.1,0.4c0.1,0.2,0.1,0.2-0.2,0.3c-0.2,0.1-0.7,0.3-0.9,0
				c-0.2-0.2-0.3-0.4-0.4-0.7C123.5-61.2,123.5-61.6,123.4-61.7z M147.8-62.1c-0.4,0-0.5-0.2-0.7-0.4c-0.6-0.5-0.4-0.5-0.2-0.7
				c0.5-0.3,0.5-0.3,1-0.6c0.1-0.1,0.2-0.1,0.3-0.2c0.3-0.1,0.8,0.5,1,0.7c0.3,0.3,0.1,0.3-0.1,0.4c-0.4,0.2-0.8,0.4-1.1,0.7
				C147.8-62.2,147.9-62.2,147.8-62.1z M116.1-68.3c-0.2,0-0.6-0.1-0.7-0.2c-0.4-0.1-0.9-0.3-1.3-0.4c-0.3-0.1-2.6-0.8-2.6-0.9
				c-0.1,0-0.2-0.5-0.1-0.6c0.1,0,0.2,0,0.3,0.1c0.7,0.2,1.8,0.5,2.3,0.8c0.3,0.1,0.4,0.1,0.7,0.2c0.1,0,0.2,0.1,0.3,0.1
				c0.3,0.1,0.5,0.2,0.8,0.3c0.1,0,0.1,0,0.2,0.1C115.9-68.7,116.1-68.4,116.1-68.3z M132.2-58.9c0,0.1,0,0.1,0.1,0.2
				c0,0.1,0,0.1-0.1,0.1c-0.1,0-0.5-0.4-0.6-0.5c-0.3-0.2-0.3-0.3-0.5-0.6c-0.1-0.3-0.5-0.7,0.1-1c0.5-0.2,1.1,0.1,1.3,0.3
				c0.1,0.1,0.2,0.2,0.3,0.3C133.1-59.5,133.1-59.1,132.2-58.9z M131.3-59.9c0,0.1,0.4,0.5,0.4,0.5c0.1,0,0.4-0.1,0.5-0.2
				c0.1,0,0.3-0.1,0.4-0.2C132.2-60.1,131.6-60.2,131.3-59.9z M145-66.9c-0.1,0-0.1,0-0.1,0c-0.1-0.1-0.1-0.4-0.3-0.4
				c-0.6-0.3-1.3,0.3-0.9,1c0.4,0.7,0.6,0.7,1,1.2c0.1,0.1,0.2,0.3,0.2,0.4c0,0.1,0,0,0,0c-0.1,0-0.1,0-0.2-0.1
				c-0.1-0.1-0.2-0.3-0.4-0.4c-0.1-0.2-0.3-0.4-0.5-0.5c-0.4-0.5-0.9-1.5-0.5-2c0.1-0.1,0.2-0.2,0.3-0.3
				C144.6-68.4,145.3-67.2,145-66.9z M130.9-73.4c0.2,0,0.7,0.1,1,0.1c0.4,0.1,0.7,0,1.1,0.1c0.8,0.2,1.4,0.3,1.8,0.8
				c0.2,0.2,0.5,0.7,0.2,0.9c-0.3,0.1-0.7,0.2-0.9,0c-0.1-0.1-0.1-0.2-0.2-0.3c-0.1-0.1-0.2-0.2-0.1-0.3c0.2,0,0.3,0.1,0.6,0
				c0.3-0.1,0.1-0.3,0-0.3C133.5-72.8,131.2-73.2,130.9-73.4z M154.8-63.8c-0.1,0,0-0.4-0.2-0.5c-0.1-0.1-0.4-0.2-0.6-0.1
				c-0.2,0-0.3,0.2-0.4,0.3c-0.1,0.3,0.3,1.1,0.5,1.4c0.2,0.3-0.1,0.3-0.4-0.3c-0.3-0.5-0.8-1.4-0.2-1.8c0.1,0,0.1,0,0.1-0.1
				c0,0,0,0,0.1-0.1c0.3-0.1,0.7,0,0.8,0.2C154.9-64.5,155-63.8,154.8-63.8z M156-72.2c-0.1,0-0.1-0.1-0.1-0.1
				c-0.1-0.4-0.7-0.3-0.9,0.1c-0.1,0.4,0.2,0.8,0.4,1.2c0.2,0.2,0.5,0.5,0.4,0.6c-0.2,0-0.2-0.1-0.2-0.2c-0.4-0.4-0.9-1.3-0.9-1.8
				c0-0.4,0.4-0.9,0.9-0.7C155.9-73,156.2-72.4,156-72.2z M169.1-63.8c-0.2,0-0.1-0.1-0.2-0.2c0-0.1-0.1-0.1-0.1-0.2
				c-0.1-0.2-0.4-0.1-0.6,0c-0.3,0.3-0.1,0.7,0,1c0.1,0.3,0.3,0.5,0.5,0.8c0,0,0.1,0.2,0,0.2c-0.1,0.1-0.1-0.1-0.3-0.3
				c-0.1-0.1-0.1-0.1-0.1-0.2c-0.3-0.5-0.3-0.4-0.4-0.9c-0.1-0.3-0.3-0.7-0.1-1c0.1-0.1,0.2-0.3,0.4-0.4c0.3-0.1,0.5,0,0.7,0.2
				c0.1,0.1,0.1,0.1,0.2,0.3C169.1-64.2,169.2-63.9,169.1-63.8z M128.5-60.3c-0.2,0-0.1,0-0.3-0.2c-0.3-0.3-0.7,0-0.7,0.1
				c-0.2,0.4,0.3,1,0.6,1.3c0.1,0.1,0.2,0.2,0.1,0.3c-0.2,0-0.2-0.1-0.3-0.1c-0.1-0.1-0.1-0.1-0.2-0.2c-0.1-0.1-0.3-0.3-0.4-0.4
				c-0.2-0.3-0.4-0.7-0.5-1c0-0.3,0.2-0.6,0.5-0.7c0.4-0.1,0.7,0.1,0.9,0.3C128.5-60.7,128.7-60.4,128.5-60.3z M121.4-63.2
				c-0.2,0-0.1-0.2-0.3-0.3c-0.1-0.1-0.3-0.2-0.4-0.1c-0.1,0-0.3,0.2-0.4,0.3c-0.2,0.3,0,0.6,0.1,0.8c0.1,0.2,0.3,0.5,0.4,0.7
				c0.1,0.1,0.2,0.2,0.1,0.3c-0.2,0-0.2-0.1-0.2-0.2c-0.2-0.3-0.4-0.6-0.6-0.9c-0.1-0.1-0.1-0.2-0.1-0.3c-0.1-0.2-0.1-0.4-0.1-0.6
				c0-0.3,0.3-0.6,0.5-0.7c0.2,0,0.3,0,0.4,0c0.3,0.2,0.4,0.3,0.5,0.7c0,0.1,0,0.1,0,0.2C121.4-63.3,121.4-63.3,121.4-63.2z
				 M138.8-68.6c-0.2,0,0-0.1-0.2-0.2c-0.1-0.1-0.3-0.1-0.4,0c-0.2,0.1-0.3,0.3-0.2,0.5c0.1,0.2,0.3,0.6,0.5,0.7
				c0.1,0.1,0.1,0.2,0.1,0.3c-0.1,0-0.1,0-0.2-0.1c-0.3-0.3-0.7-1-0.6-1.3c0.1-0.6,0.8-0.7,1-0.2C138.8-68.9,138.9-68.7,138.8-68.6z
				 M162.3-69.9c-0.1-0.1-0.1-0.3-0.4-0.3c-0.2,0-0.3,0.2-0.3,0.4c0.1,0.2,0.1,0.4,0.2,0.6c0.1,0.1,0.1,0.2,0.1,0.2
				c-0.1,0-0.1,0-0.2-0.1c-0.1-0.2-0.2-0.2-0.3-0.5c-0.1-0.2-0.2-0.5-0.1-0.8c0.2-0.4,0.7-0.4,0.9,0C162.5-70.1,162.5-70,162.3-69.9
				z M167.3-72.2C167.2-72.2,167.3-72.2,167.3-72.2c-0.1,0-0.2-0.4-0.6-0.3c-0.4,0.1,0,0.9,0.1,1c0,0.1,0.4,0.3,0.3,0.4
				c-0.1,0-0.1,0-0.2-0.1c-0.1-0.2-0.2-0.3-0.3-0.5c-0.1-0.2-0.3-0.6-0.3-0.8c-0.1-0.5,0.6-0.7,0.9-0.1c0,0.1,0.1,0.1,0.1,0.2
				C167.4-72.3,167.4-72.2,167.3-72.2z M113.4-66.5L113.4-66.5c-0.2-0.2-0.7-0.3-1-0.4c-0.7-0.3-2.1-0.5-2.2,0.2
				c0,0.2,1.2,1.5,1.4,1.6C112.1-65.3,113.2-66.2,113.4-66.5z M109.6-67.5L109.6-67.5c0,0,0-0.1,0-0.3c0-0.1,0.1-0.2,0.1-0.3
				c0.1-0.2,0.3-0.2,0.5-0.3c-0.3-0.4-1-1.8-1.1-2.2c-1.4-4.7,7.4-1.3,9,0.9c0.1,0.1,0.3,0.6,0.4,0.7c0.2-0.8,0-1.1,0.9-1.9
				c0.3-0.2,0.8-0.5,1.3-0.5c0.1,0,0.2,0,0.4,0c0.1,0,0.3,0,0.4,0c0.1-0.2,0.1-0.6,0.2-0.7c0.3,0.1,0.1,0.6,0.2,0.7
				c0,0,0.3,0.1,0.4,0.1c1.8,0.4,5.1,2,6.3,2c0.4,0,0.4-0.2,0.7,0.5c0.1,0.2,0.3,0.3,0.3,0.5c-0.1,0-1.4,0.2-1.8,0.3
				c-2.2,0.4-6.1,2-7.6-0.1c-0.7-1,0.3-1.6,0.5-2.3c-0.7,0.2-1.1,0.5-1.3,1c-0.2,0.3-0.3,0.7-0.3,1.1c0,0.2-0.1,0.4-0.1,0.6
				c0,0.2,0,0.4-0.1,0.6c-0.2,0.7-0.2,0.9-0.5,1.6c-0.2,0.3-0.3,0.7-0.5,1c-0.1,0.1-0.2,0.3-0.3,0.5c-0.2,0.3-0.3,0.6-0.6,0.9
				c-0.1,0.1-0.2,0.3-0.3,0.4c-0.1,0,0,0-0.1,0c-0.1-0.1-0.4-0.9-0.5-1c-0.1-0.3-0.1-0.2,0.1-0.5c0.1-0.2,0.1-0.3,0.3-0.5
				c0.2-0.3,0.3-0.6,0.5-0.9c0.4-0.6,0.7-1.3,0.9-2c0.2-0.5,0.3-1.1,0.2-1.7c-0.5-1.5-11.2-5.2-7.8,0.1c0.1,0.1,0.2,0.4,0.3,0.5
				c0,0,0.1,0,0.2,0c0.8,0.1,1.8,0.3,2.4,0.8c0.1,0.1,0.1,0.1,0.2,0.1c0,0,0,0,0.1,0.1c0.2,0.1,0.3,0.3,0.4,0.4c0,0,0,0,0,0.1
				c0,0,0,0.1,0,0.1l0,0c0.8,1.5-0.4,1.7-1.4,2.6c0,0.2,1.6,1.4,1.9,2.2c0,0.1,0.1,0.3,0.1,0.4c-0.2,0-0.3-0.1-0.4-0.2
				c-0.5-0.6-1.4-1.3-2-1.9c0,0,0,0-0.1-0.1c-0.1-0.1,0,0-0.1-0.1c-0.1,0.1-0.8,0.5-1,0.7c0,0,0,0,0,0c0.1,0,0.2,0,0.4,0
				c0.1,0,0.3-0.1,0.4,0c0.1,0.1,0,0.2-0.1,0.2c-0.6,0.3-1.8,0.8-2.1,1c-0.1,0.1-0.2,0.1-0.2,0c0-0.1-0.1-0.1-0.1-0.2
				c-0.1-0.1-0.3-0.9-0.2-1c0,0,0.2,0,0.2,0c0,0,1.8-1.5,1.8-1.5c-0.5-0.5-0.9-1-1.2-1.6C109.8-66.8,109.7-67.1,109.6-67.5z
				 M121.7-70.1c-0.2,0.5-0.6,1-0.9,1.4c-0.2,0.3-0.3,0.4,0.2,0.6c1.5,0.8,4.1-0.4,5.6-0.6C126.1-69,122.4-70.1,121.7-70.1z"/>
		</g>
	</g>
</symbol>
<g id="Layer_2_1_">
	<g id="Layer_1-2">
		<g>
			<defs>
				<rect id="SVGID_1_" width="494.9" height="154.9"/>
			</defs>
			<clipPath id="SVGID_2_">
				<use xlink:href="#SVGID_1_"  style="overflow:visible;"/>
			</clipPath>
			<g style="clip-path:url(#SVGID_2_);">
				
					<use xlink:href="#New_Symbol_1"  width="494.9" height="154.9" x="-247.4" y="-77.4" transform="matrix(1 0 0 -1 247.445 77.425)" style="overflow:visible;"/>
			</g>
		</g>
	</g>
</g>
</svg>
